<?xml version="1.0" encoding="UTF-8"?>
<svg id="_圖層_6" data-name="圖層 6" xmlns="http://www.w3.org/2000/svg" viewBox="0 0 961 399">
  <defs>
    <style>
      .cls-1 {
        fill: #fff;
      }

      .cls-2 {
        stroke: #005598;
        stroke-width: 2px;
      }

      .cls-2, .cls-3 {
        fill: none;
        stroke-miterlimit: 10;
      }

      .cls-3 {
        stroke: #d6d6d6;
      }

      .cls-4 {
        fill: #5198b7;
      }

      .cls-5 {
        fill: #005598;
      }

      .cls-6 {
        fill: #231815;
      }
    </style>
  </defs>
  <g>
    <line class="cls-2" x1="54.7" y1="367.6" x2="952.9" y2="367.6"/>
    <g>
      <g>
        <path class="cls-6" d="M75.7,387.8c3.4-3.4,5.4-5.5,5.4-7.3,0-1.3-.7-2.2-2.2-2.2-1,0-1.8,.6-2.4,1.4l-.8-.8c1-1,2-1.7,3.5-1.7,2.1,0,3.4,1.3,3.4,3.3,0,2.2-1.9,4.3-4.7,7.1,.6,0,1.3-.1,1.9-.1h3.3v1.3h-7.4s0-1,0-1Z"/>
        <path class="cls-6" d="M84.6,382.9c0-3.8,1.4-5.9,3.7-5.9s3.6,2.1,3.6,5.9-1.4,6-3.6,6-3.7-2.1-3.7-6Zm5.9,0c0-3.3-.9-4.7-2.2-4.7s-2.2,1.4-2.2,4.7,.9,4.8,2.2,4.8,2.2-1.4,2.2-4.8Z"/>
        <path class="cls-6" d="M93.5,382.9c0-3.8,1.4-5.9,3.7-5.9s3.6,2.1,3.6,5.9-1.4,6-3.6,6-3.7-2.1-3.7-6Zm5.9,0c0-3.3-.9-4.7-2.2-4.7s-2.2,1.4-2.2,4.7,.9,4.8,2.2,4.8,2.2-1.4,2.2-4.8Z"/>
        <path class="cls-6" d="M102.4,382.9c0-3.8,1.4-5.9,3.7-5.9s3.6,2.1,3.6,5.9-1.4,6-3.6,6-3.7-2.1-3.7-6Zm5.9,0c0-3.3-.9-4.7-2.2-4.7s-2.2,1.4-2.2,4.7,.9,4.8,2.2,4.8,2.2-1.4,2.2-4.8Z"/>
      </g>
      <g>
        <path class="cls-6" d="M270.8,387.8c3.4-3.4,5.4-5.5,5.4-7.3,0-1.3-.7-2.2-2.2-2.2-1,0-1.8,.6-2.4,1.4l-.9-.8c1-1,2-1.7,3.5-1.7,2.1,0,3.4,1.3,3.4,3.3,0,2.2-2,4.3-4.7,7.1,.6,0,1.3-.1,1.9-.1h3.3v1.3h-7.4v-1h.1Z"/>
        <path class="cls-6" d="M279.7,382.9c0-3.8,1.4-5.9,3.7-5.9s3.6,2.1,3.6,5.9-1.4,6-3.6,6-3.7-2.1-3.7-6Zm5.9,0c0-3.3-.9-4.7-2.2-4.7s-2.2,1.4-2.2,4.7,.9,4.8,2.2,4.8,2.2-1.4,2.2-4.8Z"/>
        <path class="cls-6" d="M288.6,382.9c0-3.8,1.4-5.9,3.7-5.9s3.6,2.1,3.6,5.9-1.4,6-3.6,6-3.7-2.1-3.7-6Zm5.9,0c0-3.3-.9-4.7-2.2-4.7s-2.2,1.4-2.2,4.7,.9,4.8,2.2,4.8,2.2-1.4,2.2-4.8Z"/>
        <path class="cls-6" d="M297.1,387.3l.7-1c.7,.7,1.5,1.3,2.9,1.3s2.5-1,2.5-2.6-1-2.5-2.4-2.5c-.8,0-1.3,.3-2,.7l-.8-.5,.4-5.5h5.7v1.3h-4.4l-.3,3.4c.5-.3,1-.5,1.7-.5,2,0,3.5,1.1,3.5,3.6s-1.9,3.9-3.8,3.9c-1.8,0-2.9-.8-3.7-1.6Z"/>
      </g>
      <g>
        <path class="cls-6" d="M465.1,387.8c3.4-3.4,5.4-5.5,5.4-7.3,0-1.3-.7-2.2-2.2-2.2-1,0-1.8,.6-2.4,1.4l-.9-.8c1-1,2-1.7,3.5-1.7,2.1,0,3.4,1.3,3.4,3.3,0,2.2-2,4.3-4.7,7.1,.6,0,1.3-.1,1.9-.1h3.3v1.3h-7.4l.1-1h0Z"/>
        <path class="cls-6" d="M474,382.9c0-3.8,1.4-5.9,3.7-5.9s3.7,2.1,3.7,5.9-1.4,6-3.7,6-3.7-2.1-3.7-6Zm5.9,0c0-3.3-.9-4.7-2.2-4.7s-2.2,1.4-2.2,4.7,.9,4.8,2.2,4.8,2.2-1.4,2.2-4.8Z"/>
        <path class="cls-6" d="M483.5,387.5h2.6v-8.5h-2.1v-.9c1-.2,1.8-.5,2.4-.8h1.1v10.2h2.3v1.2h-6.4l.1-1.2h0Z"/>
        <path class="cls-6" d="M491.8,382.9c0-3.8,1.4-5.9,3.7-5.9s3.7,2.1,3.7,5.9-1.4,6-3.7,6-3.7-2.1-3.7-6Zm5.9,0c0-3.3-.9-4.7-2.2-4.7s-2.2,1.4-2.2,4.7,.9,4.8,2.2,4.8,2.2-1.4,2.2-4.8Z"/>
      </g>
      <g>
        <path class="cls-6" d="M659.5,387.8c3.4-3.4,5.4-5.5,5.4-7.3,0-1.3-.7-2.2-2.2-2.2-1,0-1.8,.6-2.4,1.4l-.8-.8c1-1,2-1.7,3.5-1.7,2.1,0,3.4,1.3,3.4,3.3,0,2.2-2,4.3-4.7,7.1,.6,0,1.3-.1,1.9-.1h3.3v1.3h-7.4v-1h0Z"/>
        <path class="cls-6" d="M668.5,382.9c0-3.8,1.4-5.9,3.7-5.9s3.7,2.1,3.7,5.9-1.4,6-3.7,6-3.7-2.1-3.7-6Zm5.8,0c0-3.3-.9-4.7-2.2-4.7s-2.2,1.4-2.2,4.7,.9,4.8,2.2,4.8,2.2-1.4,2.2-4.8Z"/>
        <path class="cls-6" d="M678,387.5h2.6v-8.5h-2.1v-.9c1-.2,1.8-.5,2.4-.8h1.1v10.2h2.3v1.2h-6.4l.1-1.2h0Z"/>
        <path class="cls-6" d="M685.9,387.3l.7-1c.7,.7,1.5,1.3,2.9,1.3s2.5-1,2.5-2.6-1-2.5-2.4-2.5c-.8,0-1.3,.3-2,.7l-.8-.5,.4-5.5h5.7v1.3h-4.4l-.3,3.4c.5-.3,1-.5,1.7-.5,2,0,3.5,1.1,3.5,3.6s-1.9,3.9-3.8,3.9c-1.8,0-2.9-.8-3.7-1.6Z"/>
      </g>
      <g>
        <path class="cls-6" d="M854,387.8c3.4-3.4,5.4-5.5,5.4-7.3,0-1.3-.7-2.2-2.2-2.2-1,0-1.8,.6-2.4,1.4l-.8-.8c1-1,2-1.7,3.5-1.7,2.1,0,3.4,1.3,3.4,3.3,0,2.2-2,4.3-4.7,7.1,.6,0,1.3-.1,1.9-.1h3.3v1.3h-7.4v-1h0Z"/>
        <path class="cls-6" d="M862.9,382.9c0-3.8,1.4-5.9,3.7-5.9s3.7,2.1,3.7,5.9-1.4,6-3.7,6-3.7-2.1-3.7-6Zm5.9,0c0-3.3-.9-4.7-2.2-4.7s-2.2,1.4-2.2,4.7,.9,4.8,2.2,4.8,2.2-1.4,2.2-4.8Z"/>
        <path class="cls-6" d="M871.7,387.8c3.4-3.4,5.4-5.5,5.4-7.3,0-1.3-.7-2.2-2.2-2.2-1,0-1.8,.6-2.4,1.4l-.8-.8c1-1,2-1.7,3.5-1.7,2.1,0,3.4,1.3,3.4,3.3,0,2.2-2,4.3-4.7,7.1,.6,0,1.3-.1,1.9-.1h3.3v1.3h-7.4v-1h0Z"/>
        <path class="cls-6" d="M880.7,382.9c0-3.8,1.4-5.9,3.7-5.9s3.7,2.1,3.7,5.9-1.4,6-3.7,6-3.7-2.1-3.7-6Zm5.9,0c0-3.3-.9-4.7-2.2-4.7s-2.2,1.4-2.2,4.7,.9,4.8,2.2,4.8,2.2-1.4,2.2-4.8Z"/>
      </g>
    </g>
    <g>
      <line class="cls-2" x1="869.2" y1="366.5" x2="869.2" y2="360.1"/>
      <line class="cls-2" x1="675.2" y1="366.5" x2="675.2" y2="360.1"/>
      <line class="cls-2" x1="772.2" y1="366.5" x2="772.2" y2="360.1"/>
      <line class="cls-2" x1="578.2" y1="366.5" x2="578.2" y2="360.1"/>
      <line class="cls-2" x1="481.2" y1="366.5" x2="481.2" y2="360.1"/>
      <line class="cls-2" x1="384.2" y1="366.5" x2="384.2" y2="360.1"/>
      <line class="cls-2" x1="287.2" y1="366.5" x2="287.2" y2="360.1"/>
      <line class="cls-2" x1="190.2" y1="366.5" x2="190.2" y2="360.1"/>
      <line class="cls-2" x1="93.2" y1="366.5" x2="93.2" y2="360.1"/>
    </g>
  </g>
  <line class="cls-3" x1="952.9" y1="35" x2="54.7" y2="35"/>
  <line class="cls-3" x1="952.9" y1="71.9" x2="54.7" y2="71.9"/>
  <line class="cls-3" x1="952.9" y1="108.9" x2="54.7" y2="108.9"/>
  <line class="cls-3" x1="952.9" y1="145.9" x2="54.7" y2="145.9"/>
  <line class="cls-3" x1="952.9" y1="182.8" x2="54.7" y2="182.8"/>
  <line class="cls-3" x1="952.9" y1="219.8" x2="54.7" y2="219.8"/>
  <line class="cls-3" x1="952.9" y1="256.8" x2="54.7" y2="256.8"/>
  <line class="cls-3" x1="952.9" y1="330.1" x2="54.7" y2="330.1"/>
  <polygon class="cls-5" points="58.7 296.7 58.7 293.2 62.8 293.2 61.5 296.7 58.7 296.7"/>
  <polygon class="cls-5" points="68.6 292.9 64.9 289.2 63.8 292.9 68.6 292.9"/>
  <polygon class="cls-5" points="78.9 292.9 81.5 289.2 83.5 292.9 78.9 292.9"/>
  <polygon class="cls-5" points="86.5 293.2 88.5 294.9 90.3 296.7 90.3 298 91.8 299.5 93.1 299.5 95.1 298 96.9 296.3 98.6 294.9 100.2 296.7 101.9 296.7 103.7 299.5 105 299.5 105 305.5 106.5 301 108.2 299.3 110.8 299.3 113.8 299.3 116.6 299.3 117.8 300.4 119.2 302.5 124.7 308.4 130.5 301.6 132.5 300.8 135.5 300.8 139.3 301.4 142.1 300.8 143.9 299.3 145.4 299.6 145.4 300.8 146.1 300.8 146.1 302.3 146.9 303 149.7 303.3 151.3 303.3 153 305.9 155.7 308.4 157 309.6 157 310.7 158.5 310.7 159.5 310.7 161.4 310.7 161.4 311.5 163.2 313.2 163.2 314.5 164.7 315.1 165.7 314.4 166.5 312 167.5 310.3 169.4 308.1 169.4 306.8 171.6 306.8 172.8 308.4 175.2 310.6 177.3 311.2 180.1 311.1 183.1 311.1 185.9 307.8 190 302.3 192.1 300.1 193.9 299.6 196.4 298.6 199.4 298.1 202 298.3 203.2 298.3 204.4 298.1 205.8 296.7 206.9 294.9 208.9 294.9 210.6 294 210.6 293.2 86.5 293.2"/>
  <polygon class="cls-5" points="212.7 293 212.7 292.3 216.4 291 217.4 290.2 219.3 289.2 220.4 288.3 222.6 289.5 224.5 290.7 225.3 291.6 227.6 291.6 229.3 290.7 230.8 290.7 232 289.9 234 289.7 234.9 290.7 235.8 290.7 235.8 291.8 241.1 291.9 241.8 290.7 246.4 290.7 247.4 289.6 249.1 288.3 251.1 286.3 252.4 284.7 253.4 283.9 254.5 283.9 255.3 285.2 256 286 258.2 286.1 258.2 285.1 261 285.4 261.8 285.8 263.2 286.5 263.9 286 263.9 287.1 265.6 287.2 266.8 287.6 267.8 287.3 268.7 286.3 269.5 285.1 271.6 285.2 274 285.2 275.1 283.9 276.5 283 277.9 283 277.9 284.2 280.8 284.2 283.1 283.9 285.7 283.7 287.6 283.7 288.9 283 289.9 282.4 291.4 281.8 294.3 281.8 295.3 280.6 296.6 280.6 297.2 279.9 299.9 279.9 302.3 279.1 303.8 279.1 303.8 278.5 306.6 278.5 308 278.5 308 279.3 309.1 280.3 317.2 280.4 318.4 279.3 321.2 276.7 323.2 275.6 325.3 274.6 327 273.6 329.4 272.6 331.6 271.3 333.6 270.4 335.4 269.3 336.6 270.2 338 271 339.9 271.5 342 271.5 342.9 270.5 345 269.3 346.4 266.6 347.5 265.2 349 264.2 350.4 264.2 351.5 264.2 353 266 353.9 267 354.7 269.1 356 269.8 357.6 269 359.2 268 361.9 265.7 364.5 264.2 365.9 264.2 367.7 266.5 368.8 267.9 369.8 268.4 371.6 268.8 372.9 269.3 373.5 270.9 373.5 272.3 375 274.2 376 275.2 377.5 277 378.6 278 380.5 278.6 382.7 278.6 383.7 277.1 385.3 275.5 387.3 274.1 389.3 274 390.2 275.5 390.2 276.8 391.2 278.6 392 280.8 393 282.3 395 282.3 396.8 281.8 398.9 282 399.6 283.7 401 287 401.8 288.6 402.4 290.2 402.4 293 212.7 293"/>
  <polygon class="cls-5" points="403.7 293.4 403.7 295.6 403.7 296.4 404.8 299 405.7 300.7 406.9 302.5 407.9 304.4 409.6 305.2 411.9 305.2 412.8 305.2 413.8 307.2 416.2 310.5 419 316 420.4 313.2 424.2 306.8 427.1 304 429.2 302.3 431.5 302.1 432.5 300.9 433.6 298.2 436.3 296.7 438.6 295.3 439.3 294.7 439.3 292.9 403.7 293.4"/>
  <polygon class="cls-5" points="447 293 451.4 288.6 453 288.6 454.9 290.4 455.5 290.8 457.3 290.8 463.3 283.4 464.6 283.4 470.5 292.3 470.5 293 447 293"/>
  <polygon class="cls-5" points="472.7 293 473.5 291.3 474.3 290 476 290 476 291 477.3 291.5 478.5 291.5 479.7 290 481.1 287.3 482.6 285.7 484.5 283.4 485.3 283.4 487.8 283.4 488.8 281.3 490.3 279.5 492.4 277.5 494.5 275.7 496.9 274.3 497.7 272.7 502.2 272.7 503 271.4 505.8 269.9 507.7 270.9 510.8 272.2 512 273.3 513.3 274.1 514.7 274.8 515.5 276.5 516.5 278.8 517.8 280.6 518.8 282.5 518.8 283.4 519.9 285.4 521.4 285.3 522.6 283.4 523.6 281.5 525.1 278.2 525.7 277.2 531.5 277 533 275.7 535.3 273.4 536.6 271.2 538.1 269.1 540 267.8 541.5 266.4 542.8 266.4 544.3 267.3 545.3 268.6 546 270.5 546 272.3 548.1 272.6 549.7 271 550.8 269.3 552.9 268.4 556.2 267.5 557.9 266.4 559.2 265.4 560.2 264.4 561.7 263.6 561.7 264.5 563.4 265.5 564.9 266 569.7 265.5 571.7 265 572.6 263.6 573.2 260.6 574 259.2 578.1 259.2 578.1 257.8 579.4 256.3 580.4 255.4 582.4 254 583.6 252.6 584.8 251.1 586.1 250.1 588.2 250.1 589.4 250.7 590.9 251.3 591.8 250.1 592.8 248 593.8 247 595.1 247 596.2 248.3 596.2 249.6 597.1 250.3 598.2 250.2 600.6 247 603.3 242.4 605.5 240.4 609 237.7 610.2 236 611.4 236 612.5 236 612.5 237.6 613.5 239.1 614.8 239.3 615.4 237.1 616.5 235.4 617.3 234 619.3 234 622.8 234 624.5 233 630.6 227.6 632.5 229.4 634.1 229.6 635 227.6 636.8 226.5 636.8 224.9 638.8 224.9 639.9 226.8 642.3 225.7 644.2 223.9 646.3 222.4 647.5 220.4 648.9 220.4 649.9 221.8 651 223.9 652.7 225.1 654 225.4 655.1 224.3 655.1 223.3 656.1 221.6 657.1 219.3 658.5 219.3 659.1 220.1 659.9 221.6 662 220.9 663.7 220.5 666.6 219.9 666.6 218.4 668.5 218.4 668.5 220.3 670 222 671 221.4 672.9 219.4 674.1 219.8 674.1 222.7 675.5 225.6 676.9 228.1 677.7 229.9 679.1 231.5 680.3 231.8 681.5 228.4 682.6 225.6 683.6 222.3 685.6 221.6 687.5 221.8 688.4 223.3 690.4 226.1 692.3 229.4 693 231.3 694.7 231.8 697.4 231.6 700.5 223.2 704.6 222.4 705.7 221.4 710.1 221.1 713.8 216.2 718.3 216.2 720.2 217.2 722.5 218.5 724 218.8 725.8 216.2 727.4 213.2 729 212.3 731.7 210.8 733.9 208.8 735 207.1 735.8 205.9 735.8 203.3 741.3 203.3 741.3 202.2 744.2 202.2 746 201.1 747.5 200.3 749.4 199.4 750.9 198.5 752.5 197 756.6 197 769.4 183.6 772.5 173.8 773.3 173.8 779.7 186.3 782.8 186.5 785.7 182.1 789.5 181.7 796.7 168.9 799.3 168.9 802.1 183 805.4 180.7 808.4 196.4 811.4 196.1 812.2 183.5 820.4 175.4 821.8 169.5 822.9 169.5 825 180.7 827 180.2 828.4 169.5 829.6 167.8 831.4 167.1 832.8 167.1 833.8 168.5 835.1 170.4 836.6 170.4 843.3 162 848.1 153.1 849.1 150.3 850.8 150.3 851.5 152.4 852.6 155.7 853.6 161.8 855.2 168.4 856.4 179.2 857.3 192.5 858.6 192.4 861.7 172 871.3 154.3 872.3 151.3 873.8 144.9 875.2 135.9 876.1 135.9 877 141.4 878.3 144 880.2 148 881 149.6 882.9 149.6 884.7 134.8 886.3 128.3 887.4 125 887.4 122 888.4 119.8 889.5 119.8 890.3 121 891.7 121.7 892.8 121.4 900.4 103 902.6 92.3 904.7 92.3 912.9 79.7 914.3 72.7 915.3 72.7 917.3 86.2 918.9 85.9 921.8 68.4 923.2 68.4 923.2 70 924.8 69.7 927.7 59.7 928.9 59.7 934 84.1 935.5 83.6 937.9 75.4 938.6 75.8 942.2 101.3 944.3 101.4 947.5 123 949.1 122.5 951.3 103.4 952.9 103.7 952.9 293 472.7 293"/>
  <g>
    <path class="cls-6" d="M9.8,77.7l.7-1c.7,.7,1.6,1.3,2.9,1.3,1.4,0,2.4-.8,2.4-2.1,0-1.4-.9-2.3-3.7-2.3v-1.1c2.4,0,3.3-.9,3.3-2.1,0-1.1-.8-1.8-2-1.8-.9,0-1.8,.5-2.4,1.1l-.8-.9c.9-.8,1.9-1.4,3.3-1.4,2,0,3.4,1,3.4,2.9,0,1.4-.8,2.3-2.1,2.7v.1c1.4,.3,2.5,1.3,2.5,2.9,0,2-1.7,3.3-3.8,3.3-1.7,0-2.9-.8-3.7-1.6Z"/>
    <path class="cls-6" d="M19,73.3c0-3.8,1.4-5.9,3.7-5.9s3.7,2.1,3.7,5.9-1.4,6-3.7,6-3.7-2.1-3.7-6Zm5.9,0c0-3.4-.9-4.7-2.2-4.7s-2.2,1.4-2.2,4.7,.9,4.8,2.2,4.8c1.3,0,2.2-1.4,2.2-4.8Z"/>
    <path class="cls-6" d="M27.9,73.3c0-3.8,1.4-5.9,3.7-5.9s3.7,2.1,3.7,5.9-1.4,6-3.7,6-3.7-2.1-3.7-6Zm5.9,0c0-3.4-.9-4.7-2.2-4.7s-2.2,1.4-2.2,4.7,.9,4.8,2.2,4.8c1.3,0,2.2-1.4,2.2-4.8Z"/>
    <path class="cls-6" d="M36.4,73.4c0-1.6,.7-2.5,1.8-2.5s1.8,.9,1.8,2.5-.7,2.6-1.8,2.6c-1,0-1.8-1-1.8-2.6Zm2.9,0c0-1.3-.4-1.9-1.1-1.9-.6,0-1.1,.6-1.1,1.9s.4,1.9,1.1,1.9,1.1-.6,1.1-1.9Zm3.7-2.5h.7l-4.5,8.4h-.7l4.5-8.4Zm-.9,5.8c0-1.6,.7-2.5,1.8-2.5s1.8,.9,1.8,2.5-.7,2.5-1.8,2.5-1.8-.9-1.8-2.5Zm2.9,0c0-1.3-.4-1.9-1.1-1.9-.6,0-1.1,.6-1.1,1.9s.4,1.9,1.1,1.9c.6,0,1.1-.6,1.1-1.9Z"/>
    <path class="cls-6" d="M10.1,152.2c3.4-3.4,5.4-5.5,5.4-7.4,0-1.3-.7-2.2-2.2-2.2-1,0-1.8,.6-2.4,1.4l-.8-.8c1-1,2-1.7,3.5-1.7,2.1,0,3.4,1.3,3.4,3.3,0,2.1-2,4.3-4.7,7.1,.6,0,1.3-.1,1.9-.1h3.3v1.3h-7.4v-.9Z"/>
    <path class="cls-6" d="M19,147.3c0-3.8,1.4-5.9,3.7-5.9s3.7,2.1,3.7,5.9-1.4,6-3.7,6-3.7-2.1-3.7-6Zm5.9,0c0-3.4-.9-4.7-2.2-4.7s-2.2,1.4-2.2,4.7,.9,4.8,2.2,4.8c1.3,0,2.2-1.4,2.2-4.8Z"/>
    <path class="cls-6" d="M27.9,147.3c0-3.8,1.4-5.9,3.7-5.9s3.7,2.1,3.7,5.9-1.4,6-3.7,6-3.7-2.1-3.7-6Zm5.9,0c0-3.4-.9-4.7-2.2-4.7s-2.2,1.4-2.2,4.7,.9,4.8,2.2,4.8c1.3,0,2.2-1.4,2.2-4.8Z"/>
    <path class="cls-6" d="M36.4,147.4c0-1.6,.7-2.5,1.8-2.5s1.8,.9,1.8,2.5-.7,2.6-1.8,2.6c-1,0-1.8-1-1.8-2.6Zm2.9,0c0-1.3-.4-1.9-1.1-1.9-.6,0-1.1,.6-1.1,1.9s.4,1.9,1.1,1.9,1.1-.6,1.1-1.9Zm3.7-2.5h.7l-4.5,8.4h-.7l4.5-8.4Zm-.9,5.8c0-1.6,.7-2.5,1.8-2.5s1.8,.9,1.8,2.5-.7,2.5-1.8,2.5-1.8-.9-1.8-2.5Zm2.9,0c0-1.3-.4-1.9-1.1-1.9-.6,0-1.1,.6-1.1,1.9s.4,1.9,1.1,1.9c.6,0,1.1-.6,1.1-1.9Z"/>
    <path class="cls-6" d="M10.8,225.9h2.6v-8.4h-2.1v-.9c1-.2,1.8-.5,2.4-.8h1.1v10.2h2.3v1.2h-6.4c.1-.1,.1-1.3,.1-1.3Z"/>
    <path class="cls-6" d="M19,221.3c0-3.8,1.4-5.9,3.7-5.9s3.7,2.1,3.7,5.9-1.4,6-3.7,6-3.7-2.1-3.7-6Zm5.9,0c0-3.4-.9-4.7-2.2-4.7s-2.2,1.4-2.2,4.7,.9,4.8,2.2,4.8c1.3,0,2.2-1.4,2.2-4.8Z"/>
    <path class="cls-6" d="M27.9,221.3c0-3.8,1.4-5.9,3.7-5.9s3.7,2.1,3.7,5.9-1.4,6-3.7,6-3.7-2.1-3.7-6Zm5.9,0c0-3.4-.9-4.7-2.2-4.7s-2.2,1.4-2.2,4.7,.9,4.8,2.2,4.8c1.3,0,2.2-1.4,2.2-4.8Z"/>
    <path class="cls-6" d="M36.4,221.4c0-1.6,.7-2.5,1.8-2.5s1.8,.9,1.8,2.5-.7,2.6-1.8,2.6c-1,0-1.8-1-1.8-2.6Zm2.9,0c0-1.3-.4-1.9-1.1-1.9-.6,0-1.1,.6-1.1,1.9s.4,1.9,1.1,1.9,1.1-.6,1.1-1.9Zm3.7-2.5h.7l-4.5,8.4h-.7l4.5-8.4Zm-.9,5.8c0-1.6,.7-2.5,1.8-2.5s1.8,.9,1.8,2.5-.7,2.5-1.8,2.5-1.8-.9-1.8-2.5Zm2.9,0c0-1.3-.4-1.9-1.1-1.9-.6,0-1.1,.6-1.1,1.9s.4,1.9,1.1,1.9c.6,0,1.1-.6,1.1-1.9Z"/>
    <path class="cls-6" d="M27.9,295.3c0-3.8,1.4-5.9,3.7-5.9s3.7,2.1,3.7,5.9-1.4,6-3.7,6-3.7-2.1-3.7-6Zm5.9,0c0-3.3-.9-4.7-2.2-4.7s-2.2,1.4-2.2,4.7,.9,4.8,2.2,4.8,2.2-1.4,2.2-4.8Z"/>
    <path class="cls-6" d="M36.4,295.4c0-1.6,.7-2.5,1.8-2.5s1.8,.9,1.8,2.5-.7,2.6-1.8,2.6c-1,0-1.8-1-1.8-2.6Zm2.9,0c0-1.3-.4-1.9-1.1-1.9-.6,0-1.1,.6-1.1,1.9s.4,1.9,1.1,1.9c.7,0,1.1-.6,1.1-1.9Zm3.7-2.5h.7l-4.5,8.4h-.7l4.5-8.4Zm-.9,5.8c0-1.6,.7-2.5,1.8-2.5s1.8,.9,1.8,2.5-.7,2.5-1.8,2.5-1.8-.9-1.8-2.5Zm2.9,0c0-1.3-.4-1.9-1.1-1.9-.6,0-1.1,.6-1.1,1.9s.4,1.9,1.1,1.9c.6,0,1.1-.6,1.1-1.9Z"/>
    <path class="cls-6" d="M4.6,370h4.1v1.1H4.6v-1.1Z"/>
    <path class="cls-6" d="M10.8,373.9h2.6v-8.4h-2.1v-.9c1-.2,1.8-.5,2.4-.8h1.1v10.2h2.3v1.2h-6.4c.1-.1,.1-1.3,.1-1.3Z"/>
    <path class="cls-6" d="M19,369.3c0-3.8,1.4-5.9,3.7-5.9s3.7,2.1,3.7,5.9-1.4,6-3.7,6-3.7-2.1-3.7-6Zm5.9,0c0-3.3-.9-4.7-2.2-4.7s-2.2,1.4-2.2,4.7,.9,4.8,2.2,4.8,2.2-1.4,2.2-4.8Z"/>
    <path class="cls-6" d="M27.9,369.3c0-3.8,1.4-5.9,3.7-5.9s3.7,2.1,3.7,5.9-1.4,6-3.7,6-3.7-2.1-3.7-6Zm5.9,0c0-3.3-.9-4.7-2.2-4.7s-2.2,1.4-2.2,4.7,.9,4.8,2.2,4.8,2.2-1.4,2.2-4.8Z"/>
    <path class="cls-6" d="M36.4,369.4c0-1.6,.7-2.5,1.8-2.5s1.8,.9,1.8,2.5-.7,2.6-1.8,2.6c-1,0-1.8-1-1.8-2.6Zm2.9,0c0-1.3-.4-1.9-1.1-1.9-.6,0-1.1,.6-1.1,1.9s.4,1.9,1.1,1.9c.7,0,1.1-.6,1.1-1.9Zm3.7-2.5h.7l-4.5,8.4h-.7l4.5-8.4Zm-.9,5.8c0-1.6,.7-2.5,1.8-2.5s1.8,.9,1.8,2.5-.7,2.5-1.8,2.5-1.8-.9-1.8-2.5Zm2.9,0c0-1.3-.4-1.9-1.1-1.9-.6,0-1.1,.6-1.1,1.9s.4,1.9,1.1,1.9c.6,0,1.1-.6,1.1-1.9Z"/>
  </g>
  <line class="cls-2" x1="54.7" y1="20.7" x2="54.7" y2="368.7"/>
  <line class="cls-3" x1="953.8" y1="293" x2="55.6" y2="293"/>
  <g>
    <path class="cls-4" d="M226.5,147h233.5c15.4,0,27.9-14.1,27.9-31.4V52.1c0-17.4-12.5-31.4-27.9-31.4H164.4c-15.4,0-27.9,14.1-27.9,31.4v63.5c0,17.4,12.5,31.4,27.9,31.4h37.7v21.1l24.4-21.1Z"/>
    <g>
      <path class="cls-1" d="M160,41.3c-.9,1.4-1.9,2.7-2.8,3.7-.3-.2-.9-.6-1.2-.8,1.7-1.4,3.2-3.8,4.1-6l1.3,.4c-.2,.5-.5,1-.7,1.5h11.1v1.2h-11.8Zm9.8,7c-.1,1.2-.1,2.1-.2,2.9h2.2v1.2h-2.3c-.1,.9-.3,1.4-.5,1.7-.3,.4-.7,.6-1.3,.6h-2.3c0-.3-.2-.8-.3-1.1,.9,.1,1.8,.1,2.1,.1s.5,0,.7-.3c.1-.1,.3-.5,.4-1h-10.3c.2-1.1,.4-2.5,.7-4h-2.7v-1.2h2.7c.2-1.4,.4-2.8,.5-4h10.8v.6c0,1.3-.1,2.4-.1,3.3h2.5v1.2h-2.6Zm-1.5,2.9c.1-.7,.1-1.7,.2-2.9h-8.6c-.1,1-.3,2-.4,2.9h5.6c-.8-.7-2.1-1.6-3.2-2.2l.8-.7c1.2,.6,2.7,1.5,3.4,2.3l-.6,.7,2.8-.1h0Zm-7.9-6.9c-.1,.9-.3,1.9-.4,2.8h5.4c-.7-.6-2-1.5-3.2-2l.8-.8c1.2,.5,2.6,1.3,3.3,2l-.8,.8h3.1c0-.9,.1-1.8,.1-2.8h-8.3Z"/>
      <path class="cls-1" d="M187.9,52.7c0,.9-.3,1.4-.9,1.6-.7,.2-1.9,.3-3.8,.3-.1-.4-.3-1-.6-1.4h3.4c.4,0,.6-.1,.6-.5v-3.6h-8.6c-.4,2-1.4,4.1-3.1,5.6-.2-.3-.7-.8-1-1,2.9-2.5,3.1-6.2,3.1-9v-5.5h11l-.1,13.5h0Zm-1.4-4.9v-3h-8.2c0,.9-.1,2-.2,3h8.4Zm-8.2-7.3v3h8.2v-3h-8.2Z"/>
      <path class="cls-1" d="M195.8,47.9v5.1c0,.8-.2,1.1-.7,1.3-.4,.2-1.2,.3-2.4,.3-.1-.3-.3-.9-.4-1.2h1.9c.3,0,.3-.1,.3-.3v-4.6l-2.3,.7-.4-1.3c.7-.2,1.7-.4,2.7-.7v-3.9h-2.5v-1.3h2.4v-3.6h1.3v3.6h2.2v1.3h-2.2v3.5l1.7-.5,.2,1.2-1.8,.4Zm11.3-1.4c-.7,2.2-2,3.9-3.5,5.1,1.4,.9,3,1.5,4.8,1.9-.3,.3-.7,.9-.9,1.2-1.9-.5-3.6-1.2-5-2.3-1.6,1.1-3.4,1.8-5.3,2.3-.1-.4-.4-.9-.7-1.2,1.7-.4,3.4-1,4.9-1.9-1.2-1.1-2.2-2.5-2.9-4.1l.2-.1h-.7v-1.3h8.4l.7,.4Zm-6.2-5.6c0,1.6-.5,3.5-2.7,4.8-.2-.3-.6-.8-.9-1,2-1.1,2.3-2.6,2.3-3.9v-2h5.7v4.2c0,.5,.1,.7,.3,.7h1.4c.3,0,.7,0,.9-.1,0,.3,.1,.9,.1,1.1-.2,.1-.6,.1-1,.1h-1.5c-1.3,0-1.5-.5-1.5-1.9v-2.9h-3.1v.9h0Zm-1.1,6.5c.6,1.3,1.6,2.5,2.7,3.4,1.2-.9,2.2-2.1,2.8-3.4h-5.5Z"/>
      <path class="cls-1" d="M219,39.4c0,3.2,.4,10,7.5,14.2-.3,.2-.9,.8-1.1,1.1-4.4-2.7-6.3-6.6-7.1-10-1.3,4.7-3.6,7.9-7.2,10-.3-.3-.9-.8-1.2-1.1,4-2.1,6.2-5.7,7.3-10.7l.8,.1c-.1-.8-.2-1.6-.2-2.3h-4.4v-1.3h5.6Z"/>
      <path class="cls-1" d="M227.7,51.8l.8-1.1c.8,.8,1.7,1.5,3.2,1.5s2.8-1.1,2.8-2.9-1.1-2.9-2.7-2.9c-.9,0-1.4,.3-2.2,.8l-.9-.6,.4-6.2h6.4v1.4h-5l-.3,3.8c.6-.3,1.2-.5,2-.5,2.2,0,4,1.3,4,4s-2.1,4.3-4.3,4.3c-2.1,.1-3.4-.7-4.2-1.6Z"/>
      <path class="cls-1" d="M238,46.9c0-4.3,1.6-6.6,4.1-6.6s4.1,2.3,4.1,6.6-1.5,6.7-4.1,6.7c-2.5-.1-4.1-2.4-4.1-6.7Zm6.7,0c0-3.8-1-5.3-2.5-5.3s-2.5,1.5-2.5,5.3,1,5.4,2.5,5.4c1.4-.1,2.5-1.7,2.5-5.4Z"/>
      <path class="cls-1" d="M248,46.9c0-4.3,1.6-6.6,4.1-6.6s4.1,2.3,4.1,6.6-1.5,6.7-4.1,6.7c-2.5-.1-4.1-2.4-4.1-6.7Zm6.6,0c0-3.8-1-5.3-2.5-5.3s-2.5,1.5-2.5,5.3,1,5.4,2.5,5.4c1.5-.1,2.5-1.7,2.5-5.4Z"/>
      <path class="cls-1" d="M258,46.9c0-4.3,1.6-6.6,4.1-6.6s4.1,2.3,4.1,6.6-1.5,6.7-4.1,6.7c-2.5-.1-4.1-2.4-4.1-6.7Zm6.6,0c0-3.8-1-5.3-2.5-5.3s-2.5,1.5-2.5,5.3,1,5.4,2.5,5.4c1.5-.1,2.5-1.7,2.5-5.4Z"/>
      <path class="cls-1" d="M282.1,53.1c.7,0,.8-.5,.9-3.2,.3,.3,.9,.5,1.2,.6-.1,3.1-.5,3.9-2.1,3.9h-2.6c-1.6,0-2-.5-2-2v-6.4h-3.4c-.3,3.9-1.2,7-5.4,8.7-.2-.3-.5-.8-.9-1,3.8-1.5,4.5-4.3,4.8-7.6h-4.6v-1.3h16v1.3h-5.1v6.4c0,.6,.1,.7,.9,.7l2.3-.1h0Zm.4-12.1h-12.7v-1.3h12.7v1.3Z"/>
      <path class="cls-1" d="M298.8,52.9c.9,.2,1.9,.2,3,.2h4.6c-.2,.3-.4,1-.5,1.4h-4.2c-3.8,0-6.4-.6-8.1-3.7-.6,1.7-1.5,3-2.7,4.1-.2-.3-.8-.7-1.1-.9,2-1.5,3-4.1,3.4-7.3l1.3,.1c-.1,.8-.3,1.6-.4,2.3,.7,1.9,1.8,3,3.3,3.5v-7.6h-4.4v-1.3h10.4v1.3h-4.6v2.9h5.3v1.3h-5.3v3.7h0Zm-6.8-8.7h-1.3v-3.9h7c-.2-.6-.6-1.2-.9-1.8l1.3-.4c.4,.7,.9,1.5,1.1,2.1h6.4v3.9h-1.4v-2.6h-12.2v2.7Z"/>
      <path class="cls-1" d="M316.7,50.4h-8.8v-1.2h1.8v-7.3h-1.5v-1.2h1.5v-2.2h1.2v2.2h3.3v-2.2h1.2v2.2h1.3v1.2h-1.3v7.3h1.3v1.2h0Zm-5,.7c-.6,1.4-1.7,2.8-2.7,3.6-.3-.2-.8-.6-1.1-.8,1-.8,1.9-2,2.5-3.2l1.3,.4Zm-.8-9.3v1.6h3.3v-1.6h-3.3Zm0,4.5h3.3v-1.8h-3.3v1.8Zm0,2.8h3.3v-1.8h-3.3v1.8Zm3.1,1.6c.7,.8,1.5,1.9,1.9,2.7l-1.1,.6c-.3-.7-1.1-1.9-1.9-2.7l1.1-.6Zm9.8,2.3c0,.8-.2,1.2-.7,1.4-.5,.2-1.4,.3-2.7,.3,0-.4-.3-1-.4-1.3h2.1c.3,0,.4-.1,.4-.4v-4.3h-3.8c-.2,2.1-.6,4.4-1.7,6.2-.2-.3-.8-.7-1.1-.8,1.5-2.4,1.6-5.8,1.6-8.4v-6.5h6.2l.1,13.8h0Zm-1.3-5.6v-3h-3.7v3h3.7Zm-3.7-7v2.9h3.7v-2.9h-3.7Z"/>
      <path class="cls-1" d="M334.8,52.9c.9,.2,1.9,.2,3,.2h4.6c-.2,.3-.4,1-.5,1.4h-4.2c-3.8,0-6.4-.6-8.1-3.7-.6,1.7-1.5,3-2.7,4.1-.2-.3-.8-.7-1.1-.9,2-1.5,3-4.1,3.4-7.3l1.3,.1c-.1,.8-.3,1.6-.4,2.3,.7,1.9,1.8,3,3.3,3.5v-7.6h-4.4v-1.3h10.4v1.3h-4.6v2.9h5.3v1.3h-5.3v3.7h0Zm-6.8-8.7h-1.3v-3.9h7c-.2-.6-.6-1.2-.9-1.8l1.3-.4c.4,.7,.9,1.5,1.1,2.1h6.4v3.9h-1.4v-2.6h-12.2v2.7Z"/>
      <path class="cls-1" d="M351.1,49.3l-.1-.1v5.4h-1.2v-.5h-3.2v.6h-1.1v-5.3c-.3,.2-.6,.3-.9,.5-.1-.3-.5-.9-.7-1.1,1.2-.5,2.4-1.1,3.5-2-.5-.3-.9-.6-1.3-.8l.8-.8c.4,.2,.9,.5,1.4,.8,.5-.6,1-1.2,1.4-1.9h-2.6c-.5,.8-1.2,1.6-2,2.2-.2-.3-.5-.7-.7-.9,1.4-1,2.3-2.4,2.7-3.6l1.1,.2c-.1,.4-.3,.7-.4,1h2.8l.7,.5c-.5,1.2-1.1,2.3-1.9,3.1,1.1,.6,2.1,1.3,2.8,1.8l-1.1,.9Zm-5.7-6.3h-1v-3h3.3c-.2-.5-.3-.9-.5-1.3l1-.4c.3,.5,.6,1.2,.8,1.7h3v3h-1.1v-1.9h-5.4l-.1,1.9h0Zm5.6,6.2c-.7-.5-1.6-1.1-2.6-1.8-.8,.7-1.6,1.3-2.5,1.8h5.1Zm-1.2,3.8v-2.7h-3.2v2.7h3.2Zm6-.5c-1.1,.9-2.6,1.8-3.7,2.3-.1-.3-.4-.7-.6-1,1.1-.5,2.6-1.4,3.4-2.2l.9,.9Zm-.5-10.5c.1-.5,.2-1.2,.3-1.8h-3.2v-1.1h7.8v1.1h-3.3c-.2,.6-.3,1.2-.5,1.8h3.3v9.3h-6.7v-9.3h2.3Zm3.1,1.1h-4.2v1.7h4.2v-1.7Zm0,2.8h-4.2v1.7h4.2v-1.7Zm0,2.6h-4.2v1.7h4.2v-1.7Zm-.9,3.1c1,.6,2.3,1.6,3,2.2l-.8,1c-.6-.7-1.9-1.7-2.9-2.3l.7-.9Z"/>
      <path class="cls-1" d="M362,51.6l1-1.1c.9,1,2.3,1.6,3.6,1.6,1.7,0,2.8-.9,2.8-2.2,0-1.4-1-1.8-2.2-2.3l-1.9-.8c-1.2-.5-2.7-1.5-2.7-3.4,0-2,1.8-3.5,4.2-3.5,1.6,0,3,.7,3.9,1.6l-.9,1.1c-.8-.8-1.8-1.2-3-1.2-1.5,0-2.5,.8-2.5,1.9,0,1.3,1.1,1.8,2.2,2.2l1.9,.8c1.5,.7,2.7,1.6,2.7,3.5,0,2.1-1.7,3.8-4.5,3.8-1.8-.1-3.5-.8-4.6-2Z"/>
      <path class="cls-1" d="M372.5,49.9c0-1.8,1.2-2.9,2.6-3.8-.5-1.1-.9-2.1-.9-3.1,0-1.8,1.2-3.1,3-3.1,1.6,0,2.6,1.1,2.6,2.6,0,1.7-1.5,2.9-3,3.9,.9,1.4,2.1,2.7,3.4,3.7,.8-1.1,1.5-2.4,1.9-3.9h1.5c-.5,1.8-1.2,3.4-2.3,4.7,.9,.6,1.7,1.1,2.5,1.3l-.4,1.4c-.9-.3-2-.8-3-1.5-1,.9-2.3,1.5-3.8,1.5-2.4-.1-4.1-1.6-4.1-3.7Zm4.3,2.3c.9,0,1.8-.4,2.5-1.1-1.3-1.1-2.5-2.5-3.5-3.9-.9,.8-1.7,1.5-1.7,2.6,0,1.5,1.2,2.4,2.7,2.4Zm-.5-6.9c1.2-.8,2.3-1.6,2.3-2.8,0-.8-.4-1.5-1.2-1.5-1,0-1.6,.8-1.6,1.9-.1,.8,.1,1.6,.5,2.4Z"/>
      <path class="cls-1" d="M385.9,40.1h3.8c3,0,4.9,1,4.9,3.9s-2,4.1-4.9,4.1h-2.2v5.2h-1.7v-13.2h.1Zm3.7,6.6c2.3,0,3.4-.9,3.4-2.7,0-1.9-1.2-2.5-3.5-2.5h-1.9v5.3l2-.1h0Z"/>
      <path class="cls-1" d="M400,51.8l.8-1.1c.8,.8,1.7,1.5,3.2,1.5s2.8-1.1,2.8-2.9-1.1-2.9-2.7-2.9c-.9,0-1.4,.3-2.2,.8l-.9-.6,.4-6.2h6.4v1.4h-5l-.3,3.8c.6-.3,1.2-.5,2-.5,2.2,0,4,1.3,4,4s-2.1,4.3-4.3,4.3c-2,.1-3.3-.7-4.2-1.6Z"/>
      <path class="cls-1" d="M410.4,46.9c0-4.3,1.6-6.6,4.1-6.6s4.1,2.3,4.1,6.6-1.5,6.7-4.1,6.7-4.1-2.4-4.1-6.7Zm6.6,0c0-3.8-1-5.3-2.5-5.3s-2.5,1.5-2.5,5.3,1,5.4,2.5,5.4c1.5-.1,2.5-1.7,2.5-5.4Z"/>
      <path class="cls-1" d="M420.4,46.9c0-4.3,1.6-6.6,4.1-6.6s4.1,2.3,4.1,6.6-1.5,6.7-4.1,6.7-4.1-2.4-4.1-6.7Zm6.6,0c0-3.8-1-5.3-2.5-5.3s-2.5,1.5-2.5,5.3,1,5.4,2.5,5.4c1.5-.1,2.5-1.7,2.5-5.4Z"/>
      <path class="cls-1" d="M436.5,47.2l-2.3,.7v5.2c0,.8-.2,1.1-.6,1.4-.5,.2-1.2,.3-2.4,.2,0-.3-.2-.9-.4-1.2h1.8c.3,0,.3-.1,.3-.3v-4.8c-.9,.3-1.7,.5-2.4,.7l-.4-1.3c.8-.2,1.8-.5,2.8-.8v-3.8h-2.6v-1.3h2.6v-3.6h1.3v3.6h2v1.3h-2v3.4c.7-.2,1.4-.4,2.1-.6l.2,1.2Zm3.3-1.9c-1.8,0-2.3-.6-2.3-2.1v-4.9h1.3v2.1h7.2v1.2h-7.2v1.6c0,.7,.2,.9,1,.9h4.7c.6,0,1.6,0,2-.1,0,.4,.1,.9,.2,1.2-.3,.1-1.2,.1-2.1,.1h-4.8Zm-2.3,1.5h8.4v7.8h-1.3v-.8h-5.8v.8h-1.3v-7.8h0Zm1.2,1.2v1.8h5.8v-1.8h-5.8Zm5.9,4.8v-1.9h-5.8v1.9h5.8Z"/>
      <path class="cls-1" d="M463.4,43c-.3,2.8-.9,5-1.8,6.9,.8,1.6,1.9,2.9,3.3,3.7-.3,.2-.7,.7-.9,1-1.3-.8-2.3-2-3.1-3.5-1,1.5-2.3,2.7-4.1,3.6-.1-.2-.4-.6-.6-.9l-.4,.4c-.6-.3-1.4-.8-2.3-1.1-1,.6-2.5,1.1-4.6,1.6-.1-.3-.4-.7-.6-.9,1.7-.3,3-.8,3.9-1.2-.9-.3-1.7-.6-2.6-.9,.3-.4,.7-1,1.1-1.6h-2.3v-1h2.9c.2-.4,.4-.8,.6-1.1h-2.7v-2.9h3.4v-.8h-3v-2h-1.2v-1h1.2v-1.9h3v-1.2h1.1v1.2h3.1v1.9h1v1h-1v2h-3.1v.8h3.5v1c1.2-2,2-4.9,2.5-7.8l1.2,.2c-.2,1.1-.5,2.2-.8,3.3h4.7v1.2h-1.4Zm-13.1,4.2h2.2v-1.2h-2.2v1.2Zm.3-6.8v1h1.9v-1h-1.9Zm2,3v-1.1h-1.9v1.1h1.9Zm-.7,6.7c-.2,.4-.5,.7-.7,1.1,.6,.2,1.3,.4,2,.7,.8-.6,1.2-1.2,1.4-1.8h-2.7Zm4.6,3.4c1.7-.9,2.9-2.1,3.7-3.6-.6-1.4-1-3-1.3-4.8-.3,.8-.6,1.4-1,2-.2-.2-.5-.5-.8-.7v1.7h-4.1c-.2,.4-.4,.8-.6,1.1h2.3v-.8h1.1v.7h1.8v1h-1.9c-.1,.7-.5,1.5-1.4,2.2,.9,.4,1.7,.8,2.2,1.2h0Zm-2.9-13.1v1h2v-1h-2Zm2.1,3v-1.1h-2v1.1h2Zm-2.1,2.6v1.2h2.3v-1.2h-2.3Zm6.1-3l-.1,.2c.3,1.9,.7,3.7,1.3,5.3,.6-1.5,1-3.4,1.2-5.5h-2.4Z"/>
      <path class="cls-1" d="M161.3,74c-.1-.3-.1-.6-.2-1-3.8,.7-4.3,.9-4.6,1.1-.1-.3-.3-.9-.4-1.2,.4-.1,.8-.6,1.3-1.2,.3-.3,.9-1.1,1.5-2.1-1.9,.2-2.3,.3-2.5,.5-.1-.3-.3-.9-.4-1.2,.3-.1,.6-.5,.9-1,.4-.5,1.5-2.6,2.1-4.5l1.2,.5c-.7,1.7-1.6,3.5-2.5,4.8l1.9-.2c.4-.8,.9-1.6,1.3-2.4l1.1,.6c-1.1,2.1-2.5,4.3-3.9,5.9l2.8-.5c-.2-.5-.3-1.1-.5-1.5l.9-.3c.5,1.1,.9,2.6,1.1,3.5l-1.1,.2Zm-3.3,.9c-.2,1.5-.6,3.2-1,4.3-.2-.1-.7-.3-1-.4,.5-1.1,.8-2.7,1-4.1l1,.2Zm1.6-.2c.2,1.2,.4,2.8,.5,3.8l-1,.2c0-1-.2-2.6-.4-3.8l.9-.2Zm1.6-.4c.3,1,.7,2.3,.8,3.1l-.9,.3c-.1-.9-.5-2.1-.8-3.1l.9-.3Zm.6,4c.5-1,1-2.6,1.2-3.7l.9,.3c-.3,1.2-.7,2.8-1.2,3.8l-.9-.4Zm9.7-5h-8.4v-8.3h2.5c.2-.6,.5-1.3,.6-1.8l1.3,.3c-.3,.5-.5,1.1-.8,1.5h4.8v8.3h0Zm-1.2-7.2h-6v6.1h6v-6.1Zm-1.6,12.2c.6,0,.7-.2,.7-1.9,.3,.2,.7,.3,1,.4-.1,2-.4,2.5-1.6,2.5h-2.6c-1.5,0-1.8-.3-1.8-1.5v-3.2h1.1v3.2c0,.4,.1,.5,.8,.5h2.4Zm.4-6.7c-.3-.4-.7-.9-1.1-1.5-.6,.7-1.4,1.3-2.3,1.9-.1-.2-.4-.5-.6-.6,.9-.5,1.6-1.2,2.3-1.8-.2-.3-.5-.5-.8-.8-.4,.5-1,.9-1.6,1.3-.1-.2-.4-.5-.6-.6,.6-.4,1.1-.9,1.6-1.3-.4-.4-.7-.7-1.1-1l.7-.5c.3,.3,.6,.5,.9,.8,.3-.4,.6-.8,.7-1.1l.9,.2c-.3,.5-.6,1-1,1.5,.3,.3,.5,.5,.8,.8,.4-.5,.8-1,1-1.5l.9,.1c-.4,.7-.8,1.3-1.4,2,.5,.6,1,1.1,1.3,1.6l-.6,.5Zm-1,5.3c-.4-.7-1.1-2-1.7-2.9l.9-.4c.6,.9,1.4,2.1,1.7,2.8l-.9,.5Zm2.8-2.4c.6,1.1,1.2,2.6,1.6,3.5l-1,.5c-.3-1-1-2.5-1.5-3.6l.9-.4Z"/>
      <path class="cls-1" d="M182.8,69.9v2.5h6.3v1.2h-6.3v4.4h7.1v1.2h-15.5v-1.2h7v-4.4h-6.2v-1.2h6.2v-2.5h-3.9v-1c-.9,.5-1.9,1-2.9,1.3-.2-.4-.6-.9-.9-1.2,3.4-1.1,6.7-3.2,8.4-5.9l1.2,.6c-.1,.2-.3,.4-.4,.6,1.8,1.9,4.9,3.8,7.7,4.6-.3,.3-.7,.8-.9,1.1-.9-.3-1.9-.8-2.9-1.4v1.1h-4v.2Zm-4.9,4c.7,1,1.4,2.4,1.7,3.2l-1.2,.5c-.3-.8-1-2.3-1.7-3.3l1.2-.4Zm8.7-5.3c-1.6-1-3.2-2.2-4.4-3.4-1.2,1.3-2.6,2.5-4.2,3.4h8.6Zm-2.2,8.6c.6-.9,1.4-2.3,1.9-3.3l1.3,.5c-.7,1.1-1.5,2.4-2.1,3.3l-1.1-.5Z"/>
      <path class="cls-1" d="M199.1,74.3l-.1-.1v5.4h-1.2v-.5h-3.2v.6h-1.1v-5.3c-.3,.2-.6,.3-.9,.5-.1-.3-.4-.9-.7-1.1,1.2-.5,2.4-1.1,3.5-2-.4-.3-.9-.6-1.3-.8l.8-.8c.4,.2,.9,.5,1.4,.8,.5-.6,1-1.2,1.4-1.9h-2.6c-.5,.8-1.2,1.6-2,2.2-.2-.3-.5-.7-.7-.9,1.4-1,2.3-2.4,2.7-3.6l1.1,.2c-.1,.4-.3,.7-.4,1h2.8l.7,.5c-.5,1.2-1.1,2.3-1.9,3.1,1.1,.6,2.1,1.3,2.8,1.8l-1.1,.9Zm-5.7-6.3h-1v-3h3.3c-.2-.5-.3-.9-.5-1.3l1-.4c.3,.5,.6,1.2,.8,1.7h3v3h-1.1v-1.9h-5.4l-.1,1.9h0Zm5.6,6.2c-.7-.5-1.6-1.1-2.6-1.8-.8,.7-1.6,1.3-2.5,1.8h5.1Zm-1.2,3.8v-2.7h-3.2v2.7h3.2Zm6-.5c-1.1,.9-2.6,1.8-3.7,2.3-.1-.3-.4-.7-.6-1,1.1-.5,2.6-1.4,3.4-2.2l.9,.9Zm-.4-10.5c.1-.5,.2-1.2,.3-1.8h-3.2v-1.1h7.8v1.1h-3.3c-.2,.6-.3,1.2-.5,1.8h3.3v9.3h-6.8v-9.3h2.4Zm3,1.1h-4.2v1.7h4.2v-1.7Zm0,2.8h-4.2v1.7h4.2v-1.7Zm0,2.6h-4.2v1.7h4.2v-1.7Zm-.9,3.1c1,.6,2.3,1.6,2.9,2.2l-.8,1c-.6-.7-1.9-1.7-2.9-2.3l.8-.9Z"/>
      <path class="cls-1" d="M214.8,77h2.9v-9.5h-2.3v-1.1c1.2-.2,2-.5,2.7-.9h1.3v11.5h2.6v1.4h-7.2v-1.4h0Z"/>
      <path class="cls-1" d="M224.1,80.8c1.1-.5,1.8-1.4,1.8-2.5h-.2c-.6,0-1.2-.4-1.2-1.1s.6-1.1,1.2-1.1c.9,0,1.4,.7,1.4,2,0,1.7-1,3.1-2.6,3.8l-.4-1.1Z"/>
      <path class="cls-1" d="M229.2,72.4c0-5.2,2.3-7.1,4.9-7.1,1.4,0,2.4,.6,3.1,1.4l-.9,1c-.5-.6-1.3-1-2.1-1-1.8,0-3.3,1.4-3.4,5.5,.8-1,2-1.6,3-1.6,2.2,0,3.7,1.3,3.7,3.9s-1.7,4.1-3.8,4.1c-2.7-.1-4.5-2.1-4.5-6.2Zm1.6,1c.2,2.5,1.2,3.9,2.8,3.9,1.3,0,2.3-1.1,2.3-2.8s-.8-2.7-2.4-2.7c-.9-.1-1.9,.4-2.7,1.6Z"/>
      <path class="cls-1" d="M239.8,77h2.9v-9.5h-2.3v-1.1c1.2-.2,2-.5,2.7-.9h1.3v11.5h2.6v1.4h-7.2v-1.4Z"/>
      <path class="cls-1" d="M249.1,72.4c0-5.2,2.3-7.1,4.9-7.1,1.4,0,2.4,.6,3.1,1.4l-.9,1c-.5-.6-1.3-1-2.1-1-1.8,0-3.3,1.4-3.4,5.5,.8-1,2-1.6,3-1.6,2.2,0,3.7,1.3,3.7,3.9s-1.7,4.1-3.8,4.1c-2.6-.1-4.5-2.1-4.5-6.2Zm1.6,1c.2,2.5,1.2,3.9,2.8,3.9,1.3,0,2.3-1.1,2.3-2.8s-.8-2.7-2.4-2.7c-.8-.1-1.8,.4-2.7,1.6Z"/>
      <path class="cls-1" d="M259.1,80.8c1.1-.5,1.8-1.4,1.8-2.5h-.2c-.6,0-1.2-.4-1.2-1.1s.6-1.1,1.2-1.1c.9,0,1.4,.7,1.4,2,0,1.7-1,3.1-2.6,3.8l-.4-1.1Z"/>
      <path class="cls-1" d="M264.8,77h2.9v-9.5h-2.3v-1.1c1.2-.2,2-.5,2.7-.9h1.3v11.5h2.6v1.4h-7.2v-1.4h0Z"/>
      <path class="cls-1" d="M280.4,66.9h-6.4v-1.4h8.3v1c-3,3.9-3.7,6.8-3.9,11.8h-1.7c.2-4.8,1.2-7.9,3.7-11.4Z"/>
      <path class="cls-1" d="M283.9,77.4c3.9-3.9,6-6.2,6-8.3,0-1.5-.8-2.5-2.4-2.5-1.1,0-2,.7-2.7,1.5l-1-.9c1.1-1.2,2.2-2,3.9-2,2.4,0,3.8,1.5,3.8,3.8s-2.2,4.8-5.2,8c.7,0,1.5-.1,2.2-.1h3.7v1.4h-8.3v-.9h0Z"/>
      <path class="cls-1" d="M161.3,99c-.1-.3-.1-.6-.2-1-3.8,.7-4.3,.9-4.6,1.1-.1-.3-.3-.9-.4-1.2,.4-.1,.8-.6,1.3-1.2,.3-.3,.9-1.1,1.5-2.1-1.9,.2-2.3,.3-2.5,.5-.1-.3-.3-.9-.4-1.2,.3-.1,.6-.5,.9-1,.4-.5,1.5-2.6,2.1-4.5l1.2,.5c-.7,1.7-1.6,3.5-2.5,4.8l1.9-.2c.4-.8,.9-1.6,1.3-2.4l1.1,.6c-1.1,2.1-2.5,4.3-3.9,5.9l2.8-.5c-.2-.5-.3-1.1-.5-1.5l.9-.3c.5,1.1,.9,2.6,1.1,3.5l-1.1,.2Zm-3.3,.9c-.2,1.5-.6,3.2-1,4.3-.2-.1-.7-.3-1-.4,.5-1.1,.8-2.7,1-4.1l1,.2Zm1.6-.2c.2,1.2,.4,2.8,.5,3.8l-1,.2c0-1-.2-2.6-.4-3.8l.9-.2Zm1.6-.4c.3,1,.7,2.3,.8,3.1l-.9,.3c-.1-.9-.5-2.1-.8-3.1l.9-.3Zm.6,4c.5-1,1-2.6,1.2-3.7l.9,.3c-.3,1.2-.7,2.8-1.2,3.8l-.9-.4Zm9.7-5h-8.4v-8.3h2.5c.2-.6,.5-1.3,.6-1.8l1.3,.3c-.3,.5-.5,1.1-.8,1.5h4.8v8.3h0Zm-1.2-7.2h-6v6.1h6v-6.1Zm-1.6,12.2c.6,0,.7-.2,.7-1.9,.3,.2,.7,.3,1,.4-.1,2-.4,2.5-1.6,2.5h-2.6c-1.5,0-1.8-.3-1.8-1.5v-3.2h1.1v3.2c0,.4,.1,.5,.8,.5h2.4Zm.4-6.7c-.3-.4-.7-.9-1.1-1.5-.6,.7-1.4,1.3-2.3,1.9-.1-.2-.4-.5-.6-.6,.9-.5,1.6-1.2,2.3-1.8-.2-.3-.5-.5-.8-.8-.4,.5-1,.9-1.6,1.3-.1-.2-.4-.5-.6-.6,.6-.4,1.1-.9,1.6-1.3-.4-.4-.7-.7-1.1-1l.7-.5c.3,.3,.6,.5,.9,.8,.3-.4,.6-.8,.7-1.1l.9,.2c-.3,.5-.6,1-1,1.5,.3,.3,.5,.5,.8,.8,.4-.5,.8-1,1-1.5l.9,.1c-.4,.7-.8,1.3-1.4,2,.5,.6,1,1.1,1.3,1.6l-.6,.5Zm-1,5.3c-.4-.7-1.1-2-1.7-2.9l.9-.4c.6,.9,1.4,2.1,1.7,2.8l-.9,.5Zm2.8-2.4c.6,1.1,1.2,2.6,1.6,3.5l-1,.5c-.3-1-1-2.5-1.5-3.6l.9-.4Z"/>
      <path class="cls-1" d="M189.1,94.4c-.8,2.3-1.8,4.4-3.2,6.1,.7,1.8,1.5,2.8,2.4,2.8,.5,0,.7-.9,.9-3.3,.3,.3,.8,.6,1.1,.7-.3,3.1-.7,3.9-2.1,3.9s-2.5-1.1-3.3-3c-1.1,1.2-2.3,2.2-3.7,3-.2-.3-.7-.8-1-1.1,1.6-.9,3-2,4.1-3.3-.6-2-1.1-4.7-1.3-7.6h-6.2v2.3h4.6v.6c-.1,4-.2,5.5-.6,6-.3,.3-.6,.5-1.1,.5h-2.1c0-.4-.2-.9-.4-1.3,.8,.1,1.6,.1,1.9,.1s.4,0,.5-.2c.3-.3,.3-1.4,.4-4.5h-3.3v.1c0,2.5-.3,6.1-1.9,8.5-.2-.3-.8-.7-1.1-.9,1.5-2.2,1.6-5.3,1.6-7.6v-5h7.5c-.1-1-.1-2-.1-3h1.4c0,1,0,2,.1,3h5.8v1.3h-5.7c.2,2.4,.5,4.5,1,6.3,1-1.4,1.8-3,2.3-4.9l1.5,.5Zm-3.1-6.1c1.1,.6,2.5,1.4,3.2,2l-.8,.9c-.7-.6-2.1-1.5-3.2-2.2l.8-.7Z"/>
      <path class="cls-1" d="M202.4,93.4c1.3,3,3.6,5.9,6.1,7.3-.3,.3-.8,.8-1,1.1-2.7-1.7-5-4.9-6.3-8.4h-.3v6.6h4.2v1.3h-4.2v3.4h-1.4v-3.4h-4.2v-1.3h4.2v-6.6h-.3c-1.4,3.5-3.7,6.7-6.3,8.5-.2-.3-.6-.8-1-1.1,2.4-1.5,4.6-4.4,5.9-7.4h-5.4v-1.4h7.1v-3.8h1.4v3.8h7.1v1.3l-5.6,.1h0Z"/>
      <path class="cls-1" d="M214.8,102h2.9v-9.5h-2.3v-1.1c1.2-.2,2-.5,2.7-.9h1.3v11.5h2.6v1.4h-7.2v-1.4h0Z"/>
      <path class="cls-1" d="M224.1,105.8c1.1-.5,1.8-1.4,1.8-2.5h-.2c-.6,0-1.2-.4-1.2-1.1s.6-1.1,1.2-1.1c.9,0,1.4,.7,1.4,2,0,1.7-1,3.1-2.6,3.8l-.4-1.1Z"/>
      <path class="cls-1" d="M228.7,101.8l.8-1.1c.8,.8,1.8,1.5,3.3,1.5,1.6,0,2.7-.9,2.7-2.4s-1.1-2.5-4.1-2.5v-1.3c2.7,0,3.7-1.1,3.7-2.4,0-1.2-.9-2-2.2-2-1.1,0-2,.5-2.7,1.3l-.9-1c1-.9,2.2-1.6,3.7-1.6,2.2,0,3.8,1.2,3.8,3.3,0,1.5-1,2.5-2.3,3v.1c1.5,.4,2.8,1.5,2.8,3.3,0,2.3-1.9,3.7-4.2,3.7-2.2-.2-3.5-1-4.4-1.9Z"/>
      <path class="cls-1" d="M239.1,97.4c0-5.2,2.3-7.1,4.9-7.1,1.4,0,2.4,.6,3.1,1.4l-.9,1c-.5-.6-1.3-1-2.1-1-1.8,0-3.3,1.4-3.4,5.5,.8-1,2-1.6,3-1.6,2.2,0,3.7,1.3,3.7,3.9s-1.7,4.1-3.8,4.1c-2.6-.1-4.5-2.1-4.5-6.2Zm1.6,1c.2,2.5,1.2,3.9,2.8,3.9,1.3,0,2.3-1.1,2.3-2.8s-.8-2.7-2.4-2.7c-.8-.1-1.8,.4-2.7,1.6Z"/>
      <path class="cls-1" d="M248.7,101.8l.8-1.1c.8,.8,1.7,1.5,3.2,1.5s2.8-1.1,2.8-2.9-1.1-2.9-2.7-2.9c-.9,0-1.4,.3-2.2,.8l-.9-.6,.4-6.2h6.4v1.4h-5l-.3,3.8c.6-.3,1.2-.5,2-.5,2.2,0,4,1.3,4,4s-2.1,4.3-4.3,4.3c-2.1,.1-3.3-.7-4.2-1.6Z"/>
      <path class="cls-1" d="M259.1,105.8c1.1-.5,1.8-1.4,1.8-2.5h-.2c-.6,0-1.2-.4-1.2-1.1s.6-1.1,1.2-1.1c.9,0,1.4,.7,1.4,2,0,1.7-1,3.1-2.6,3.8l-.4-1.1Z"/>
      <path class="cls-1" d="M264,96.9c0-4.3,1.6-6.6,4.1-6.6s4.1,2.3,4.1,6.6-1.5,6.7-4.1,6.7-4.1-2.4-4.1-6.7Zm6.7,0c0-3.8-1-5.3-2.5-5.3s-2.5,1.5-2.5,5.3,1,5.4,2.5,5.4c1.5-.1,2.5-1.7,2.5-5.4Z"/>
      <path class="cls-1" d="M274,96.9c0-4.3,1.6-6.6,4.1-6.6s4.1,2.3,4.1,6.6-1.5,6.7-4.1,6.7-4.1-2.4-4.1-6.7Zm6.7,0c0-3.8-1-5.3-2.5-5.3s-2.5,1.5-2.5,5.3,1,5.4,2.5,5.4c1.4-.1,2.5-1.7,2.5-5.4Z"/>
      <path class="cls-1" d="M284,96.9c0-4.3,1.6-6.6,4.1-6.6s4.1,2.3,4.1,6.6-1.5,6.7-4.1,6.7-4.1-2.4-4.1-6.7Zm6.6,0c0-3.8-1-5.3-2.5-5.3s-2.5,1.5-2.5,5.3,1,5.4,2.5,5.4c1.5-.1,2.5-1.7,2.5-5.4Z"/>
      <path class="cls-1" d="M160.7,124.9h3.2v1.1h-3.2v3.6h-1.2v-3.6h-3.4v-1.1h3.4v-1.9h-3v-1.2h1.7c-.1-.6-.5-1.5-.9-2.2l1-.3c.4,.6,.8,1.5,.9,2.1l-.9,.3h2.2c.5-.8,1-1.8,1.2-2.5l1.1,.3c-.4,.7-.8,1.5-1.2,2.2h1.8v1.2h-2.8l.1,2h0Zm3.1-5.7h-7.8v-1.2h3.4v-1.8h-2.8v-1.1h2.8v-1.8h1.2v1.8h2.7v1.1h-2.7v1.8h3.2v1.2h0Zm8.1,1.2c-.4,2.1-1.1,4.1-2.2,5.8,.8,1,1.8,1.8,2.9,2.3-.3,.3-.7,.7-.9,1.1-1-.6-1.9-1.4-2.7-2.3-.8,1-1.6,1.8-2.6,2.5-.1-.2-.4-.5-.6-.7v.6h-1.2v-15.6h7v3.5c0,.7-.1,1-.7,1.2-.6,.2-1.5,.2-2.8,.2-.1-.4-.2-.8-.4-1.2h2.3c.3,0,.4-.1,.4-.3v-2.2h-4.5v4.8h5.3l.7,.3Zm-6.1,8.2c.9-.6,1.8-1.4,2.4-2.4-1-1.5-1.8-3.2-2.3-5h-.2v7.4h.1Zm1.3-7.3c.4,1.4,1.1,2.7,1.8,3.9,.7-1.2,1.2-2.5,1.6-3.9h-3.4Z"/>
      <path class="cls-1" d="M174,114.1h6.7v1.1h-2v2.3h1.8v11.9h-1v-1h-4.1v1.3h-1v-12.2h1.7v-2.3h-2l-.1-1.1h0Zm5.4,13.2v-4.8h-.7c-.7,0-.9-.2-.9-1v-2.9h-.8v1.5c0,1.1-.2,2.5-1.2,3.5-.1-.1-.3-.3-.4-.4v4.2l4-.1h0Zm-4.1-8.7v4.3c.7-.9,.9-1.9,.9-2.8v-1.5h-.9Zm.6,5.8h2.8v1h-2.8v-1Zm1.8-9.2h-.8v2.3h.8v-2.3Zm1.7,3.4h-.9v2.9c0,.2,0,.3,.2,.3h.7v-3.2Zm3.3-5h1.1v7.2c0,3.4-.2,6.5-2.1,9-.2-.2-.7-.6-1-.7,1.4-1.8,1.8-4,1.9-6.4l-.9,.4c-.1-1.1-.5-2.8-1-4.1l.9-.3c.4,1.2,.9,2.8,1,3.9v-1.7l.1-7.3h0Zm7,0v16.1h-1.1v-7.2l-.7,.3c-.2-1-.7-2.6-1.2-3.8v10.3h-1.1v-6.8l-.8,.3c-.1-1.1-.6-2.8-1-4l.8-.3c.4,1.2,.8,2.7,1,3.7v-8.4h1.1v4.8l.7-.3c.5,1,.9,2.3,1.2,3.4v-8.1h1.1Z"/>
      <path class="cls-1" d="M208.2,125.9h-7.3v3.8h-1.4v-3.8h-7.3v-1.2h7.3v-1.5h1.4v1.5h7.3v1.2Zm-11.3-4.7c-1.4,.7-2.8,1.5-4,2.1l-.7-1.1c1.1-.5,2.8-1.2,4.4-2l.3,1Zm6.2,2.2c-.1-.3-.3-.6-.5-1-4.7,.5-5.3,.5-5.7,.7-.1-.3-.3-.9-.4-1.2,.4,0,.9-.4,1.5-.9,.3-.3,1.1-1,2-1.9-2.1,.2-2.5,.3-2.7,.4-.1-.3-.2-.9-.4-1.1,.3,0,.5-.3,.8-.6,.2-.2,.9-1,1.4-1.8h-6.6v-1.2h7.3c-.2-.5-.6-1-.8-1.4l1.3-.3c.4,.5,.8,1.2,1.1,1.8h6.7v1.2h-7.6c-.5,.8-1.1,1.6-1.7,2.2l2.3-.1c.4-.5,.9-1,1.2-1.5l1.1,.6c-1.4,1.7-3,3.2-4.5,4.5l3.1-.3c-.3-.4-.6-.8-.9-1.1l1-.4c.8,.9,1.7,2.2,2.1,3l-1.1,.4Zm-9.4-6.6c.9,.6,2.1,1.4,2.7,2l-.9,.8c-.6-.6-1.7-1.5-2.7-2.1l.9-.7Zm13.1,6.7c-.7-.7-2.3-1.8-3.5-2.5l1-.7c1.2,.7,2.8,1.7,3.6,2.5l-1.1,.7Zm.3-6c-.8,.8-1.9,1.7-2.7,2.3l-1-.6c.8-.6,1.9-1.6,2.5-2.3l1.2,.6Z"/>
      <path class="cls-1" d="M214,127.4c3.9-3.9,6-6.2,6-8.3,0-1.5-.8-2.5-2.4-2.5-1.1,0-2,.7-2.7,1.5l-1-.9c1.1-1.2,2.2-2,3.9-2,2.4,0,3.8,1.5,3.8,3.8s-2.2,4.8-5.2,8c.7,0,1.5-.1,2.2-.1h3.7v1.4h-8.3v-.9h0Z"/>
      <path class="cls-1" d="M224.8,127h2.9v-9.5h-2.3v-1.1c1.2-.2,2-.5,2.7-.9h1.3v11.5h2.6v1.4h-7.2v-1.4h0Z"/>
      <path class="cls-1" d="M234.1,121.9c0-4.3,1.6-6.6,4.1-6.6s4.1,2.3,4.1,6.6-1.5,6.7-4.1,6.7-4.1-2.4-4.1-6.7Zm6.6,0c0-3.8-1-5.3-2.5-5.3s-2.5,1.5-2.5,5.3,1,5.4,2.5,5.4c1.5-.1,2.5-1.7,2.5-5.4Z"/>
      <path class="cls-1" d="M244.5,127.3c0-.8,.5-1.3,1.2-1.3s1.2,.5,1.2,1.3c0,.7-.5,1.2-1.2,1.2s-1.2-.5-1.2-1.2Z"/>
      <path class="cls-1" d="M249,125c0-1.7,1.2-2.8,2.4-3.5v-.1c-1-.6-1.8-1.6-1.8-3,0-2,1.6-3.3,3.6-3.3,2.3,0,3.6,1.4,3.6,3.4,0,1.4-1,2.5-1.8,3.1v.1c1.1,.7,2.2,1.6,2.2,3.3,0,1.9-1.7,3.4-4.1,3.4-2.3,.1-4.1-1.3-4.1-3.4Zm6.8,.1c0-1.7-1.6-2.3-3.5-3-1,.7-1.8,1.6-1.8,2.8,0,1.4,1.2,2.4,2.8,2.4,1.4,0,2.5-.9,2.5-2.2Zm-.3-6.4c0-1.3-.8-2.3-2.2-2.3-1.2,0-2.1,.8-2.1,2,0,1.5,1.4,2.2,3,2.8,.8-.7,1.3-1.5,1.3-2.5Z"/>
      <path class="cls-1" d="M264.3,124.8h-5.8v-1.1l5.5-8.2h1.8v8h1.8v1.3h-1.8v3.5h-1.5v-3.5Zm0-1.3v-3.8c0-.7,0-1.8,.1-2.5h-.1c-.3,.6-.7,1.2-1.1,1.8l-3,4.4,4.1,.1h0Z"/>
      <path class="cls-1" d="M268.9,119c0-2.6,1.2-4.1,3-4.1s3,1.5,3,4.1-1.2,4.2-3,4.2c-1.9,0-3-1.5-3-4.2Zm4.7,0c0-2.1-.7-3.1-1.8-3.1-1,0-1.8,1-1.8,3.1s.7,3.2,1.8,3.2,1.8-1.1,1.8-3.2Zm5.9-4.1h1.1l-7.3,13.7h-1.1l7.3-13.7Zm-1.5,9.5c0-2.6,1.2-4.1,3-4.1s3,1.5,3,4.1-1.2,4.2-3,4.2c-1.8-.1-3-1.6-3-4.2Zm4.8,0c0-2.1-.7-3.1-1.8-3.1-1,0-1.8,1-1.8,3.1s.7,3.2,1.8,3.2c1.1-.1,1.8-1.1,1.8-3.2Z"/>
    </g>
  </g>
</svg>