<?xml version="1.0" encoding="utf-8"?>
<!-- Generator: Adobe Illustrator 25.4.8, SVG Export Plug-In . SVG Version: 6.00 Build 0)  -->
<svg version="1.1" id="圖層_2" xmlns="http://www.w3.org/2000/svg" xmlns:xlink="http://www.w3.org/1999/xlink" x="0px" y="0px"
	 viewBox="0 0 360 200" style="enable-background:new 0 0 360 200;" xml:space="preserve">
<style type="text/css">
	.st0{fill:none;stroke:#005598;stroke-width:2;stroke-miterlimit:10;}
	.st1{fill:none;stroke:#D6D6D6;stroke-miterlimit:10;}
	.st2{fill:#005598;}
	.st3{fill:#231815;}
	.st4{fill:#5198B7;}
	.st5{fill:#FFFFFF;}
</style>
<g>
	<line class="st0" x1="28.8" y1="176.4" x2="359.5" y2="176.4"/>
	<g>
		<line class="st0" x1="328.8" y1="176" x2="328.8" y2="173.6"/>
		<line class="st0" x1="257.6" y1="176" x2="257.6" y2="173.6"/>
		<line class="st0" x1="293.2" y1="176" x2="293.2" y2="173.6"/>
		<line class="st0" x1="222" y1="176" x2="222" y2="173.6"/>
		<line class="st0" x1="186.4" y1="176" x2="186.4" y2="173.6"/>
		<line class="st0" x1="150.8" y1="176" x2="150.8" y2="173.6"/>
		<line class="st0" x1="115.2" y1="176" x2="115.2" y2="173.6"/>
		<line class="st0" x1="79.6" y1="176" x2="79.6" y2="173.6"/>
		<line class="st0" x1="44" y1="176" x2="44" y2="173.6"/>
	</g>
	<line class="st1" x1="359.5" y1="54.3" x2="29.8" y2="54.3"/>
	<line class="st1" x1="359.5" y1="67.8" x2="29.8" y2="67.8"/>
	<line class="st1" x1="359.5" y1="81.4" x2="29.8" y2="81.4"/>
	<line class="st1" x1="359.5" y1="95" x2="29.8" y2="95"/>
	<line class="st1" x1="359.5" y1="108.5" x2="29.8" y2="108.5"/>
	<line class="st1" x1="359.5" y1="122.1" x2="29.8" y2="122.1"/>
	<line class="st1" x1="359.5" y1="135.7" x2="29.8" y2="135.7"/>
	<line class="st1" x1="359.5" y1="162.6" x2="29.8" y2="162.6"/>
	<polygon class="st2" points="31.3,150.3 31.3,149.1 32.8,149.1 32.3,150.3 	"/>
	<polygon class="st2" points="34.9,148.9 33.6,147.6 33.2,148.9 	"/>
	<polygon class="st2" points="38.7,148.9 39.7,147.6 40.4,148.9 	"/>
	<polygon class="st2" points="41.5,149.1 42.2,149.7 42.9,150.3 42.9,150.8 43.4,151.4 43.9,151.4 44.7,150.8 45.3,150.2 
		45.9,149.7 46.5,150.3 47.2,150.3 47.8,151.4 48.3,151.4 48.3,153.6 48.8,151.9 49.5,151.3 50.4,151.3 51.5,151.3 52.5,151.3 
		53,151.7 53.5,152.5 55.5,154.6 57.6,152.1 58.4,151.8 59.5,151.8 60.9,152.1 61.9,151.8 62.6,151.3 63.1,151.4 63.1,151.8 
		63.4,151.8 63.4,152.4 63.7,152.7 64.7,152.8 65.3,152.8 65.9,153.7 66.9,154.6 67.4,155.1 67.4,155.5 67.9,155.5 68.3,155.5 
		69,155.5 69,155.8 69.7,156.4 69.7,156.9 70.2,157.1 70.6,156.8 70.9,156 71.2,155.3 71.9,154.5 71.9,154.1 72.7,154.1 73.2,154.6 
		74.1,155.4 74.8,155.7 75.9,155.6 77,155.6 78,154.4 79.5,152.4 80.3,151.6 80.9,151.4 81.8,151 82.9,150.9 83.9,150.9 84.3,150.9 
		84.8,150.9 85.3,150.3 85.7,149.7 86.4,149.7 87.1,149.4 87.1,149.1 	"/>
	<polygon class="st2" points="87.8,149 87.8,148.7 89.2,148.3 89.5,148 90.2,147.6 90.6,147.3 91.5,147.7 92.2,148.1 92.4,148.5 
		93.3,148.5 93.9,148.1 94.5,148.1 94.9,147.8 95.6,147.8 96,148.1 96.3,148.1 96.3,148.5 98.2,148.6 98.5,148.1 100.2,148.1 
		100.6,147.7 101.2,147.3 101.9,146.5 102.4,145.9 102.8,145.6 103.2,145.6 103.5,146.1 103.7,146.4 104.5,146.5 104.5,146.1 
		105.6,146.2 105.8,146.3 106.4,146.6 106.6,146.4 106.6,146.8 107.2,146.9 107.7,147 108,146.9 108.4,146.5 108.7,146.1 
		109.4,146.1 110.3,146.1 110.7,145.6 111.2,145.3 111.8,145.3 111.8,145.8 112.8,145.8 113.7,145.6 114.6,145.6 115.3,145.6 
		115.8,145.3 116.2,145.1 116.7,144.9 117.8,144.9 118.1,144.4 118.6,144.4 118.8,144.2 119.8,144.2 120.7,143.9 121.3,143.9 
		121.3,143.7 122.3,143.7 122.8,143.7 122.8,144 123.2,144.3 126.2,144.4 126.6,144 127.6,143 128.4,142.6 129.2,142.2 129.8,141.9 
		130.7,141.5 131.5,141 132.2,140.7 132.9,140.3 133.3,140.6 133.8,140.9 134.5,141.1 135.3,141.1 135.6,140.7 136.4,140.3 
		136.9,139.3 137.3,138.8 137.9,138.4 138.4,138.4 138.8,138.4 139.3,139.1 139.7,139.4 139.9,140.2 140.4,140.5 141,140.2 
		141.6,139.8 142.6,139 143.5,138.4 144.1,138.4 144.7,139.3 145.1,139.8 145.5,140 146.1,140.1 146.6,140.3 146.8,140.9 
		146.8,141.4 147.4,142.1 147.8,142.5 148.3,143.1 148.7,143.5 149.4,143.7 150.2,143.7 150.6,143.1 151.2,142.6 151.9,142 
		152.6,142 153,142.6 153,143 153.3,143.7 153.6,144.5 154,145.1 154.7,145.1 155.4,144.9 156.2,144.9 156.4,145.6 156.9,146.8 
		157.2,147.4 157.5,148 157.5,149 	"/>
	<polygon class="st2" points="157.9,149.1 157.9,149.9 157.9,150.2 158.3,151.2 158.7,151.8 159.1,152.5 159.5,153.2 160.1,153.5 
		160.9,153.5 161.3,153.5 161.6,154.2 162.5,155.4 163.5,157.4 164.1,156.4 165.5,154.1 166.5,153 167.3,152.4 168.1,152.3 
		168.5,151.9 168.9,150.9 169.9,150.3 170.7,149.8 171,149.6 171,148.9 	"/>
	<polygon class="st2" points="173.8,149 175.4,147.4 176,147.4 176.7,148 176.9,148.2 177.6,148.2 179.8,145.5 180.3,145.5 
		182.5,148.7 182.5,149 	"/>
	<polygon class="st2" points="183.3,149 183.6,148.4 183.8,147.9 184.5,147.9 184.5,148.3 184.9,148.4 185.4,148.4 185.8,147.9 
		186.3,146.9 186.9,146.3 187.6,145.5 187.9,145.5 188.8,145.5 189.2,144.7 189.7,144 190.5,143.3 191.3,142.6 192.1,142.1 
		192.4,141.5 194.1,141.5 194.4,141.1 195.4,140.5 196.1,140.9 197.2,141.4 197.7,141.8 198.2,142 198.7,142.3 199,142.9 
		199.3,143.8 199.8,144.4 200.2,145.1 200.2,145.5 200.6,146.2 201.1,146.2 201.6,145.5 201.9,144.8 202.5,143.6 202.7,143.2 
		204.8,143.1 205.4,142.6 206.2,141.8 206.7,141 207.3,140.2 208,139.7 208.5,139.2 209,139.2 209.5,139.6 209.9,140 210.2,140.7 
		210.2,141.4 210.9,141.5 211.5,140.9 211.9,140.3 212.7,140 213.9,139.6 214.5,139.2 215,138.9 215.4,138.5 215.9,138.2 
		215.9,138.5 216.6,138.9 217.1,139.1 218.9,138.9 219.6,138.7 219.9,138.2 220.1,137.1 220.4,136.6 221.9,136.6 221.9,136.1 
		222.4,135.5 222.8,135.2 223.5,134.7 224,134.2 224.4,133.6 224.9,133.2 225.7,133.2 226.1,133.5 226.6,133.7 227,133.2 
		227.3,132.5 227.7,132.1 228.2,132.1 228.6,132.6 228.6,133.1 228.9,133.3 229.3,133.3 230.2,132.1 231.2,130.4 232,129.7 
		233.3,128.7 233.7,128.1 234.2,128.1 234.6,128.1 234.6,128.7 234.9,129.2 235.4,129.3 235.6,128.5 236,127.8 236.3,127.3 
		237.1,127.3 238.4,127.3 239,127 241.2,125 241.9,125.6 242.5,125.7 242.8,125 243.5,124.6 243.5,124 244.2,124 244.6,124.7 
		245.5,124.3 246.2,123.6 247,123.1 247.4,122.3 247.9,122.3 248.3,122.9 248.7,123.6 249.3,124.1 249.8,124.2 250.2,123.8 
		250.2,123.4 250.6,122.8 250.9,121.9 251.5,121.9 251.7,122.2 252,122.8 252.7,122.5 253.4,122.4 254.4,122.2 254.4,121.6 
		255.1,121.6 255.1,122.3 255.7,122.9 256,122.7 256.7,122 257.2,122.1 257.2,123.2 257.7,124.2 258.2,125.2 258.5,125.8 259,126.4 
		259.5,126.5 259.9,125.3 260.3,124.2 260.7,123 261.4,122.8 262.1,122.9 262.4,123.4 263.2,124.4 263.9,125.6 264.1,126.3 
		264.7,126.5 265.7,126.4 266.9,123.4 268.4,123.1 268.8,122.7 270.4,122.6 271.8,120.8 273.4,120.8 274.1,121.2 275,121.6 
		275.5,121.7 276.2,120.8 276.7,119.7 277.3,119.4 278.3,118.8 279.1,118.1 279.5,117.5 279.8,117 279.8,116.1 281.9,116.1 
		281.9,115.7 282.9,115.7 283.6,115.3 284.1,115 284.8,114.6 285.4,114.3 286,113.7 287.5,113.7 292.2,108.8 293.3,105.2 
		293.6,105.2 295.9,109.8 297.1,109.9 298.1,108.3 299.5,108.1 302.2,103.4 303.1,103.4 304.2,108.6 305.4,107.8 306.5,113.5 
		307.6,113.4 307.9,108.8 310.9,105.8 311.4,103.7 311.8,103.7 312.6,107.8 313.3,107.6 313.8,103.7 314.3,103 314.9,102.8 
		315.4,102.8 315.8,103.3 316.3,104 316.8,104 319.3,100.9 321.1,97.6 321.4,96.6 322,96.6 322.3,97.4 322.7,98.6 323.1,100.8 
		323.7,103.2 324.1,107.2 324.4,112.1 324.9,112.1 326,104.6 329.6,98.1 329.9,97 330.5,94.6 331,91.3 331.3,91.3 331.7,93.3 
		332.1,94.3 332.8,95.8 333.1,96.3 333.8,96.3 334.5,90.9 335.1,88.5 335.5,87.3 335.5,86.2 335.8,85.4 336.2,85.4 336.5,85.9 
		337.1,86.1 337.5,86 340.3,79.2 341.1,75.3 341.8,75.3 344.8,70.7 345.4,68.1 345.7,68.1 346.5,73.1 347,73 348.1,66.5 348.6,66.5 
		348.6,67.1 349.2,67 350.3,63.3 350.7,63.3 352.6,72.3 353.1,72.1 354,69.1 354.3,69.3 355.6,78.6 356.4,78.7 357.5,86.6 
		358.1,86.4 358.9,79.4 359.5,79.5 359.5,149 	"/>
	<line class="st0" x1="29.8" y1="49" x2="29.8" y2="176.8"/>
	<line class="st1" x1="360.9" y1="149" x2="31.2" y2="149"/>
	<g>
		<path class="st3" d="M3.2,69.4l0.6-0.7c0.5,0.5,1.2,1,2.2,1c1,0,1.8-0.6,1.8-1.6c0-1-0.7-1.7-2.7-1.7v-0.8c1.8,0,2.4-0.7,2.4-1.6
			c0-0.8-0.6-1.4-1.5-1.4c-0.7,0-1.3,0.4-1.8,0.9l-0.6-0.7c0.7-0.6,1.4-1.1,2.5-1.1c1.5,0,2.6,0.8,2.6,2.2c0,1-0.6,1.7-1.6,2v0
			c1,0.3,1.9,1,1.9,2.2c0,1.5-1.3,2.4-2.8,2.4C4.6,70.6,3.7,70,3.2,69.4z"/>
		<path class="st3" d="M9.5,66.1c0-2.9,1-4.4,2.7-4.4s2.7,1.5,2.7,4.4c0,2.9-1,4.5-2.7,4.5S9.5,69,9.5,66.1z M13.9,66.1
			c0-2.5-0.7-3.5-1.7-3.5c-1,0-1.7,1-1.7,3.5s0.7,3.6,1.7,3.6C13.2,69.7,13.9,68.6,13.9,66.1z"/>
		<path class="st3" d="M15.5,66.1c0-2.9,1-4.4,2.7-4.4s2.7,1.5,2.7,4.4c0,2.9-1,4.5-2.7,4.5S15.5,69,15.5,66.1z M19.9,66.1
			c0-2.5-0.7-3.5-1.7-3.5c-1,0-1.7,1-1.7,3.5s0.7,3.6,1.7,3.6C19.3,69.7,19.9,68.6,19.9,66.1z"/>
		<path class="st3" d="M21.2,67.3c0-0.9,0.4-1.4,1-1.4c0.6,0,1,0.5,1,1.4c0,0.9-0.4,1.4-1,1.4C21.6,68.7,21.2,68.2,21.2,67.3z
			 M22.8,67.3c0-0.7-0.2-1-0.6-1c-0.3,0-0.6,0.3-0.6,1c0,0.7,0.2,1.1,0.6,1.1C22.6,68.4,22.8,68,22.8,67.3z M24.8,65.9h0.4l-2.4,4.6
			h-0.4L24.8,65.9z M24.3,69.1c0-0.9,0.4-1.4,1-1.4s1,0.5,1,1.4c0,0.9-0.4,1.4-1,1.4S24.3,70,24.3,69.1z M25.9,69.1
			c0-0.7-0.2-1-0.6-1c-0.3,0-0.6,0.3-0.6,1c0,0.7,0.2,1.1,0.6,1.1C25.6,70.1,25.9,69.8,25.9,69.1z"/>
		<path class="st3" d="M3.3,96.9c2.6-2.6,4-4.1,4-5.5c0-1-0.5-1.7-1.6-1.7c-0.7,0-1.3,0.5-1.8,1l-0.6-0.6c0.7-0.8,1.5-1.3,2.6-1.3
			c1.6,0,2.6,1,2.6,2.5C8.4,93,7,94.6,5,96.7c0.5,0,1-0.1,1.4-0.1h2.5v0.9H3.3V96.9z"/>
		<path class="st3" d="M9.5,93.3c0-2.9,1-4.4,2.7-4.4s2.7,1.5,2.7,4.4c0,2.9-1,4.5-2.7,4.5S9.5,96.1,9.5,93.3z M13.9,93.3
			c0-2.5-0.7-3.5-1.7-3.5c-1,0-1.7,1-1.7,3.5s0.7,3.6,1.7,3.6C13.2,96.9,13.9,95.8,13.9,93.3z"/>
		<path class="st3" d="M15.5,93.3c0-2.9,1-4.4,2.7-4.4s2.7,1.5,2.7,4.4c0,2.9-1,4.5-2.7,4.5S15.5,96.1,15.5,93.3z M19.9,93.3
			c0-2.5-0.7-3.5-1.7-3.5c-1,0-1.7,1-1.7,3.5s0.7,3.6,1.7,3.6C19.3,96.9,19.9,95.8,19.9,93.3z"/>
		<path class="st3" d="M21.2,94.5c0-0.9,0.4-1.4,1-1.4c0.6,0,1,0.5,1,1.4c0,0.9-0.4,1.4-1,1.4C21.6,95.9,21.2,95.4,21.2,94.5z
			 M22.8,94.5c0-0.7-0.2-1-0.6-1c-0.3,0-0.6,0.3-0.6,1c0,0.7,0.2,1.1,0.6,1.1C22.6,95.5,22.8,95.2,22.8,94.5z M24.8,93.1h0.4
			l-2.4,4.6h-0.4L24.8,93.1z M24.3,96.3c0-0.9,0.4-1.4,1-1.4s1,0.5,1,1.4c0,0.9-0.4,1.4-1,1.4S24.3,97.1,24.3,96.3z M25.9,96.3
			c0-0.7-0.2-1-0.6-1c-0.3,0-0.6,0.3-0.6,1c0,0.7,0.2,1.1,0.6,1.1C25.6,97.3,25.9,97,25.9,96.3z"/>
		<path class="st3" d="M3.9,123.8h2v-6.3H4.3v-0.7c0.8-0.1,1.3-0.3,1.8-0.6h0.8v7.6h1.8v0.9H3.9V123.8z"/>
		<path class="st3" d="M9.5,120.4c0-2.9,1-4.4,2.7-4.4s2.7,1.5,2.7,4.4c0,2.9-1,4.5-2.7,4.5S9.5,123.3,9.5,120.4z M13.9,120.4
			c0-2.5-0.7-3.5-1.7-3.5c-1,0-1.7,1-1.7,3.5s0.7,3.6,1.7,3.6C13.2,124,13.9,122.9,13.9,120.4z"/>
		<path class="st3" d="M15.5,120.4c0-2.9,1-4.4,2.7-4.4s2.7,1.5,2.7,4.4c0,2.9-1,4.5-2.7,4.5S15.5,123.3,15.5,120.4z M19.9,120.4
			c0-2.5-0.7-3.5-1.7-3.5c-1,0-1.7,1-1.7,3.5s0.7,3.6,1.7,3.6C19.3,124,19.9,122.9,19.9,120.4z"/>
		<path class="st3" d="M21.2,121.6c0-0.9,0.4-1.4,1-1.4c0.6,0,1,0.5,1,1.4c0,0.9-0.4,1.4-1,1.4C21.6,123,21.2,122.5,21.2,121.6z
			 M22.8,121.6c0-0.7-0.2-1-0.6-1c-0.3,0-0.6,0.3-0.6,1c0,0.7,0.2,1.1,0.6,1.1C22.6,122.7,22.8,122.3,22.8,121.6z M24.8,120.3h0.4
			l-2.4,4.6h-0.4L24.8,120.3z M24.3,123.4c0-0.9,0.4-1.4,1-1.4s1,0.5,1,1.4c0,0.9-0.4,1.4-1,1.4S24.3,124.3,24.3,123.4z M25.9,123.4
			c0-0.7-0.2-1-0.6-1c-0.3,0-0.6,0.3-0.6,1c0,0.7,0.2,1.1,0.6,1.1C25.6,124.5,25.9,124.1,25.9,123.4z"/>
		<path class="st3" d="M15.5,147.6c0-2.9,1-4.4,2.7-4.4s2.7,1.5,2.7,4.4c0,2.9-1,4.5-2.7,4.5S15.5,150.5,15.5,147.6z M19.9,147.6
			c0-2.5-0.7-3.5-1.7-3.5c-1,0-1.7,1-1.7,3.5s0.7,3.6,1.7,3.6C19.3,151.2,19.9,150.1,19.9,147.6z"/>
		<path class="st3" d="M21.2,148.8c0-0.9,0.4-1.4,1-1.4c0.6,0,1,0.5,1,1.4c0,0.9-0.4,1.4-1,1.4C21.6,150.2,21.2,149.7,21.2,148.8z
			 M22.8,148.8c0-0.7-0.2-1-0.6-1c-0.3,0-0.6,0.3-0.6,1c0,0.7,0.2,1.1,0.6,1.1C22.6,149.8,22.8,149.5,22.8,148.8z M24.8,147.4h0.4
			l-2.4,4.6h-0.4L24.8,147.4z M24.3,150.6c0-0.9,0.4-1.4,1-1.4s1,0.5,1,1.4c0,0.9-0.4,1.4-1,1.4S24.3,151.5,24.3,150.6z M25.9,150.6
			c0-0.7-0.2-1-0.6-1c-0.3,0-0.6,0.3-0.6,1c0,0.7,0.2,1.1,0.6,1.1C25.6,151.6,25.9,151.3,25.9,150.6z"/>
		<path class="st3" d="M-0.2,175.3h3.1v0.8h-3.1V175.3z"/>
		<path class="st3" d="M3.9,178.1h2v-6.3H4.3v-0.7c0.8-0.1,1.3-0.3,1.8-0.6h0.8v7.6h1.8v0.9H3.9V178.1z"/>
		<path class="st3" d="M9.5,174.8c0-2.9,1-4.4,2.7-4.4c1.7,0,2.7,1.5,2.7,4.4c0,2.9-1,4.5-2.7,4.5C10.5,179.2,9.5,177.6,9.5,174.8z
			 M13.9,174.8c0-2.5-0.7-3.5-1.7-3.5c-1,0-1.7,1-1.7,3.5s0.7,3.6,1.7,3.6C13.2,178.3,13.9,177.3,13.9,174.8z"/>
		<path class="st3" d="M15.5,174.8c0-2.9,1-4.4,2.7-4.4s2.7,1.5,2.7,4.4c0,2.9-1,4.5-2.7,4.5S15.5,177.6,15.5,174.8z M19.9,174.8
			c0-2.5-0.7-3.5-1.7-3.5c-1,0-1.7,1-1.7,3.5s0.7,3.6,1.7,3.6C19.3,178.3,19.9,177.3,19.9,174.8z"/>
		<path class="st3" d="M21.2,176c0-0.9,0.4-1.4,1-1.4c0.6,0,1,0.5,1,1.4c0,0.9-0.4,1.4-1,1.4C21.6,177.4,21.2,176.8,21.2,176z
			 M22.8,176c0-0.7-0.2-1-0.6-1c-0.3,0-0.6,0.3-0.6,1c0,0.7,0.2,1.1,0.6,1.1C22.6,177,22.8,176.7,22.8,176z M24.8,174.6h0.4
			l-2.4,4.6h-0.4L24.8,174.6z M24.3,177.7c0-0.9,0.4-1.4,1-1.4s1,0.5,1,1.4c0,0.9-0.4,1.4-1,1.4S24.3,178.6,24.3,177.7z M25.9,177.7
			c0-0.7-0.2-1-0.6-1c-0.3,0-0.6,0.3-0.6,1c0,0.7,0.2,1.1,0.6,1.1C25.6,178.8,25.9,178.4,25.9,177.7z"/>
	</g>
	<g>
		<g>
			<path class="st3" d="M31.9,192.4c2.6-2.6,4-4.1,4-5.5c0-1-0.5-1.7-1.6-1.7c-0.7,0-1.3,0.5-1.8,1l-0.6-0.6
				c0.7-0.8,1.5-1.3,2.6-1.3c1.6,0,2.6,1,2.6,2.5c0,1.6-1.5,3.2-3.5,5.3c0.5,0,1-0.1,1.4-0.1h2.5v0.9h-5.5V192.4z"/>
			<path class="st3" d="M38.6,188.8c0-2.9,1-4.4,2.7-4.4s2.7,1.5,2.7,4.4c0,2.9-1,4.5-2.7,4.5S38.6,191.7,38.6,188.8z M43,188.8
				c0-2.5-0.7-3.5-1.7-3.5c-1,0-1.7,1-1.7,3.5s0.7,3.6,1.7,3.6C42.3,192.4,43,191.3,43,188.8z"/>
			<path class="st3" d="M45.2,188.8c0-2.9,1-4.4,2.7-4.4c1.7,0,2.7,1.5,2.7,4.4c0,2.9-1,4.5-2.7,4.5
				C46.3,193.3,45.2,191.7,45.2,188.8z M49.6,188.8c0-2.5-0.7-3.5-1.7-3.5c-1,0-1.7,1-1.7,3.5s0.7,3.6,1.7,3.6
				C49,192.4,49.6,191.3,49.6,188.8z"/>
			<path class="st3" d="M51.9,188.8c0-2.9,1-4.4,2.7-4.4s2.7,1.5,2.7,4.4c0,2.9-1,4.5-2.7,4.5S51.9,191.7,51.9,188.8z M56.3,188.8
				c0-2.5-0.7-3.5-1.7-3.5c-1,0-1.7,1-1.7,3.5s0.7,3.6,1.7,3.6C55.6,192.4,56.3,191.3,56.3,188.8z"/>
		</g>
		<g>
			<path class="st3" d="M102.7,192.4c2.6-2.6,4-4.1,4-5.5c0-1-0.5-1.7-1.6-1.7c-0.7,0-1.3,0.5-1.8,1l-0.6-0.6
				c0.7-0.8,1.5-1.3,2.6-1.3c1.6,0,2.6,1,2.6,2.5c0,1.6-1.5,3.2-3.5,5.3c0.5,0,1-0.1,1.4-0.1h2.5v0.9h-5.5V192.4z"/>
			<path class="st3" d="M109.4,188.8c0-2.9,1-4.4,2.7-4.4s2.7,1.5,2.7,4.4c0,2.9-1,4.5-2.7,4.5S109.4,191.7,109.4,188.8z
				 M113.9,188.8c0-2.5-0.7-3.5-1.7-3.5c-1,0-1.7,1-1.7,3.5s0.7,3.6,1.7,3.6C113.2,192.4,113.9,191.3,113.9,188.8z"/>
			<path class="st3" d="M116.1,188.8c0-2.9,1-4.4,2.7-4.4c1.7,0,2.7,1.5,2.7,4.4c0,2.9-1,4.5-2.7,4.5
				C117.1,193.3,116.1,191.7,116.1,188.8z M120.5,188.8c0-2.5-0.7-3.5-1.7-3.5c-1,0-1.7,1-1.7,3.5s0.7,3.6,1.7,3.6
				C119.8,192.4,120.5,191.3,120.5,188.8z"/>
			<path class="st3" d="M122.5,192.1l0.5-0.7c0.5,0.5,1.1,1,2.2,1c1,0,1.9-0.8,1.9-1.9s-0.7-1.9-1.8-1.9c-0.6,0-1,0.2-1.5,0.5
				l-0.6-0.4l0.3-4.1h4.3v0.9h-3.3l-0.2,2.6c0.4-0.2,0.8-0.4,1.3-0.4c1.5,0,2.7,0.8,2.7,2.7s-1.4,2.9-2.9,2.9
				C123.9,193.3,123.1,192.7,122.5,192.1z"/>
		</g>
		<g>
			<path class="st3" d="M173.3,192.4c2.6-2.6,4-4.1,4-5.5c0-1-0.5-1.7-1.6-1.7c-0.7,0-1.3,0.5-1.8,1l-0.6-0.6
				c0.7-0.8,1.5-1.3,2.6-1.3c1.6,0,2.6,1,2.6,2.5c0,1.6-1.5,3.2-3.5,5.3c0.5,0,1-0.1,1.4-0.1h2.5v0.9h-5.5V192.4z"/>
			<path class="st3" d="M180,188.8c0-2.9,1-4.4,2.7-4.4s2.7,1.5,2.7,4.4c0,2.9-1,4.5-2.7,4.5S180,191.7,180,188.8z M184.5,188.8
				c0-2.5-0.7-3.5-1.7-3.5c-1,0-1.7,1-1.7,3.5s0.7,3.6,1.7,3.6C183.8,192.4,184.5,191.3,184.5,188.8z"/>
			<path class="st3" d="M187.2,192.2h2v-6.3h-1.6v-0.7c0.8-0.1,1.3-0.3,1.8-0.6h0.8v7.6h1.8v0.9h-4.8V192.2z"/>
			<path class="st3" d="M193.4,188.8c0-2.9,1-4.4,2.7-4.4s2.7,1.5,2.7,4.4c0,2.9-1,4.5-2.7,4.5S193.4,191.7,193.4,188.8z
				 M197.8,188.8c0-2.5-0.7-3.5-1.7-3.5c-1,0-1.7,1-1.7,3.5s0.7,3.6,1.7,3.6C197.1,192.4,197.8,191.3,197.8,188.8z"/>
		</g>
		<g>
			<path class="st3" d="M246.1,192.4c2.6-2.6,4-4.1,4-5.5c0-1-0.5-1.7-1.6-1.7c-0.7,0-1.3,0.5-1.8,1l-0.6-0.6
				c0.7-0.8,1.5-1.3,2.6-1.3c1.6,0,2.6,1,2.6,2.5c0,1.6-1.5,3.2-3.5,5.3c0.5,0,1-0.1,1.4-0.1h2.5v0.9h-5.5V192.4z"/>
			<path class="st3" d="M252.9,188.8c0-2.9,1-4.4,2.7-4.4s2.7,1.5,2.7,4.4c0,2.9-1,4.5-2.7,4.5S252.9,191.7,252.9,188.8z
				 M257.3,188.8c0-2.5-0.7-3.5-1.7-3.5c-1,0-1.7,1-1.7,3.5s0.7,3.6,1.7,3.6C256.6,192.4,257.3,191.3,257.3,188.8z"/>
			<path class="st3" d="M260,192.2h2v-6.3h-1.6v-0.7c0.8-0.1,1.3-0.3,1.8-0.6h0.8v7.6h1.8v0.9H260V192.2z"/>
			<path class="st3" d="M265.9,192.1l0.5-0.7c0.5,0.5,1.1,1,2.2,1c1,0,1.9-0.8,1.9-1.9s-0.7-1.9-1.8-1.9c-0.6,0-1,0.2-1.5,0.5
				l-0.6-0.4l0.3-4.1h4.3v0.9h-3.3l-0.2,2.6c0.4-0.2,0.8-0.4,1.3-0.4c1.5,0,2.7,0.8,2.7,2.7s-1.4,2.9-2.9,2.9
				C267.4,193.3,266.5,192.7,265.9,192.1z"/>
		</g>
		<g>
			<path class="st3" d="M316.1,192.4c2.6-2.6,4-4.1,4-5.5c0-1-0.5-1.7-1.6-1.7c-0.7,0-1.3,0.5-1.8,1l-0.6-0.6
				c0.7-0.8,1.5-1.3,2.6-1.3c1.6,0,2.6,1,2.6,2.5c0,1.6-1.5,3.2-3.5,5.3c0.5,0,1-0.1,1.4-0.1h2.5v0.9h-5.5V192.4z"/>
			<path class="st3" d="M322.8,188.8c0-2.9,1-4.4,2.7-4.4s2.7,1.5,2.7,4.4c0,2.9-1,4.5-2.7,4.5S322.8,191.7,322.8,188.8z
				 M327.2,188.8c0-2.5-0.7-3.5-1.7-3.5c-1,0-1.7,1-1.7,3.5s0.7,3.6,1.7,3.6C326.5,192.4,327.2,191.3,327.2,188.8z"/>
			<path class="st3" d="M329.4,192.4c2.6-2.6,4-4.1,4-5.5c0-1-0.5-1.7-1.6-1.7c-0.7,0-1.3,0.5-1.8,1l-0.6-0.6
				c0.7-0.8,1.5-1.3,2.6-1.3c1.6,0,2.6,1,2.6,2.5c0,1.6-1.5,3.2-3.5,5.3c0.5,0,1-0.1,1.4-0.1h2.5v0.9h-5.5V192.4z"/>
			<path class="st3" d="M336.1,188.8c0-2.9,1-4.4,2.7-4.4s2.7,1.5,2.7,4.4c0,2.9-1,4.5-2.7,4.5S336.1,191.7,336.1,188.8z
				 M340.5,188.8c0-2.5-0.7-3.5-1.7-3.5c-1,0-1.7,1-1.7,3.5s0.7,3.6,1.7,3.6C339.9,192.4,340.5,191.3,340.5,188.8z"/>
		</g>
	</g>
</g>
<g>
	<path class="st4" d="M101.4,95.4h163.5c10.8,0,19.5-9.9,19.5-22V29c0-12.2-8.8-22-19.5-22H57.9c-10.8,0-19.5,9.9-19.5,22v44.5
		c0,12.2,8.8,22,19.5,22h26.4v14.8L101.4,95.4L101.4,95.4L101.4,95.4z"/>
	<g>
		<g>
			<path class="st5" d="M54.4,23.4c-0.6,1-1.3,1.9-2,2.6c-0.2-0.2-0.6-0.4-0.8-0.6c1.2-1,2.2-2.6,2.9-4.2l0.9,0.3
				c-0.2,0.4-0.3,0.7-0.5,1.1h7.8v0.8H54.4z M61.3,28.3c-0.1,0.8-0.1,1.5-0.2,2h1.5v0.8H61c-0.1,0.6-0.2,1-0.4,1.2
				c-0.2,0.3-0.5,0.4-0.9,0.5c-0.4,0-1,0-1.6,0c0-0.2-0.1-0.5-0.2-0.7c0.6,0.1,1.2,0.1,1.5,0.1c0.2,0,0.3,0,0.5-0.2
				c0.1-0.1,0.2-0.3,0.3-0.7h-6.7v0h-0.5c0.1-0.8,0.3-1.8,0.5-2.8h-1.8v-0.9h1.9c0.1-1,0.3-1.9,0.4-2.8h7.5c0,0,0,0.3,0,0.5
				c0,0.9-0.1,1.7-0.1,2.3h1.8v0.9H61.3z M60.2,30.3c0.1-0.5,0.1-1.2,0.2-2h-6c-0.1,0.7-0.2,1.4-0.3,2h3.9c-0.5-0.5-1.4-1.1-2.3-1.5
				l0.5-0.5c0.9,0.4,1.9,1.1,2.4,1.6l-0.4,0.5H60.2z M54.7,25.5c-0.1,0.6-0.2,1.3-0.3,2h3.8c-0.5-0.5-1.4-1.1-2.2-1.4l0.5-0.5
				c0.8,0.4,1.8,0.9,2.3,1.4l-0.5,0.6h2.2c0-0.6,0.1-1.2,0.1-2H54.7z"/>
			<path class="st5" d="M74,31.4c0,0.7-0.2,1-0.7,1.1c-0.5,0.2-1.3,0.2-2.7,0.2c-0.1-0.3-0.2-0.7-0.4-1c1,0,2.1,0,2.3,0
				c0.3,0,0.4-0.1,0.4-0.4v-2.5h-6c-0.3,1.4-0.9,2.8-2.2,3.9c-0.1-0.2-0.5-0.5-0.7-0.7c2-1.8,2.2-4.3,2.2-6.3v-3.9H74V31.4z M73,28
				v-2.1h-5.8c0,0.7,0,1.4-0.1,2.1H73z M67.2,22.9v2.1H73v-2.1H67.2z"/>
			<path class="st5" d="M79.5,28v3.5c0,0.5-0.1,0.8-0.5,0.9c-0.3,0.2-0.8,0.2-1.7,0.2c0-0.2-0.2-0.6-0.3-0.9c0.6,0,1.1,0,1.3,0
				c0.2,0,0.2-0.1,0.2-0.2v-3.3L77,28.8l-0.3-0.9c0.5-0.1,1.2-0.3,1.9-0.5v-2.7h-1.7v-0.9h1.7v-2.5h0.9v2.5h1.6v0.9h-1.6v2.5
				l1.2-0.3l0.1,0.9L79.5,28z M87.4,27c-0.5,1.5-1.4,2.7-2.5,3.6c0.9,0.6,2.1,1,3.3,1.3c-0.2,0.2-0.5,0.6-0.6,0.9
				c-1.3-0.3-2.5-0.9-3.5-1.6c-1.1,0.7-2.4,1.2-3.7,1.6c-0.1-0.3-0.3-0.7-0.5-0.9c1.2-0.3,2.4-0.7,3.4-1.3c-0.9-0.8-1.5-1.8-2.1-2.9
				l0.1-0.1H81v-0.9h5.6l0.2,0L87.4,27z M83.1,23.1c0,1.1-0.3,2.5-1.9,3.4c-0.1-0.2-0.4-0.5-0.6-0.7c1.4-0.8,1.6-1.8,1.6-2.7v-1.4h4
				v2.9c0,0.4,0,0.5,0.2,0.5h1c0.2,0,0.5,0,0.6-0.1c0,0.2,0,0.6,0.1,0.8c-0.2,0.1-0.4,0.1-0.7,0.1h-1.1c-0.9,0-1.1-0.4-1.1-1.3v-2
				h-2.2V23.1z M82.3,27.7c0.4,0.9,1.1,1.7,1.9,2.4c0.8-0.7,1.5-1.4,2-2.4H82.3z"/>
			<path class="st5" d="M95.8,22c0,2.2,0.3,7,5.2,9.9c-0.2,0.2-0.6,0.6-0.8,0.8c-3.1-1.9-4.4-4.6-5-7c-0.9,3.3-2.5,5.6-5,7
				c-0.2-0.2-0.6-0.6-0.8-0.7c2.8-1.4,4.3-4,5.1-7.5l0.6,0.1c-0.1-0.6-0.1-1.1-0.2-1.6h-3.1V22H95.8z"/>
			<path class="st5" d="M101.8,30.8l0.6-0.8c0.5,0.5,1.2,1,2.3,1c1.1,0,2-0.8,2-2c0-1.2-0.8-2-1.9-2c-0.6,0-1,0.2-1.5,0.6l-0.6-0.4
				l0.3-4.3h4.5v1h-3.5l-0.2,2.7c0.4-0.2,0.8-0.4,1.4-0.4c1.5,0,2.8,0.9,2.8,2.8s-1.5,3-3,3C103.3,32,102.4,31.4,101.8,30.8z"/>
			<path class="st5" d="M109.1,27.3c0-3,1.1-4.6,2.9-4.6s2.9,1.6,2.9,4.6c0,3-1.1,4.7-2.9,4.7S109.1,30.3,109.1,27.3z M113.7,27.3
				c0-2.6-0.7-3.7-1.8-3.7c-1.1,0-1.8,1.1-1.8,3.7s0.7,3.8,1.8,3.8C113,31.1,113.7,29.9,113.7,27.3z"/>
			<path class="st5" d="M116.1,27.3c0-3,1.1-4.6,2.9-4.6s2.9,1.6,2.9,4.6c0,3-1.1,4.7-2.9,4.7S116.1,30.3,116.1,27.3z M120.7,27.3
				c0-2.6-0.7-3.7-1.8-3.7c-1.1,0-1.8,1.1-1.8,3.7s0.7,3.8,1.8,3.8C120,31.1,120.7,29.9,120.7,27.3z"/>
			<path class="st5" d="M123,27.3c0-3,1.1-4.6,2.9-4.6s2.9,1.6,2.9,4.6c0,3-1.1,4.7-2.9,4.7S123,30.3,123,27.3z M127.7,27.3
				c0-2.6-0.7-3.7-1.8-3.7c-1.1,0-1.8,1.1-1.8,3.7s0.7,3.8,1.8,3.8C127,31.1,127.7,29.9,127.7,27.3z"/>
			<path class="st5" d="M139.9,31.7c0.5,0,0.6-0.3,0.6-2.3c0.2,0.2,0.6,0.3,0.9,0.4c-0.1,2.1-0.4,2.7-1.4,2.7h-1.8
				c-1.1,0-1.4-0.3-1.4-1.4v-4.5h-2.4c-0.2,2.7-0.8,4.9-3.7,6.1c-0.1-0.2-0.4-0.6-0.6-0.7c2.7-1,3.2-3,3.3-5.3h-3.2v-0.9h11v0.9
				h-3.5v4.5c0,0.4,0.1,0.5,0.6,0.5H139.9z M140.2,23.2h-8.9v-0.9h8.9V23.2z"/>
			<path class="st5" d="M151.6,31.5c0.6,0.1,1.3,0.2,2.1,0.2c0.5,0,2.6,0,3.2,0c-0.2,0.2-0.3,0.7-0.4,0.9h-2.9
				c-2.6,0-4.5-0.5-5.6-2.6c-0.4,1.2-1,2.1-1.9,2.8c-0.2-0.2-0.5-0.5-0.8-0.6c1.4-1.1,2.1-2.9,2.4-5.1l0.9,0.1
				c-0.1,0.6-0.2,1.1-0.3,1.6c0.5,1.3,1.3,2.1,2.3,2.5V26h-3.1v-0.9h7.3V26h-3.2v2.1h3.7V29h-3.7V31.5z M146.8,25.4h-0.9v-2.7h4.9
				c-0.2-0.4-0.4-0.9-0.6-1.2l0.9-0.3c0.3,0.5,0.6,1.1,0.7,1.5h4.5v2.7h-0.9v-1.8h-8.6V25.4z"/>
			<path class="st5" d="M164.1,29.7H158v-0.8h1.2v-5.1h-1.1v-0.8h1.1v-1.5h0.9v1.5h2.3v-1.5h0.9v1.5h0.9v0.8h-0.9v5.1h0.9V29.7z
				 M160.6,30.2c-0.5,1-1.2,1.9-1.9,2.5c-0.2-0.2-0.5-0.4-0.8-0.5c0.7-0.6,1.3-1.4,1.7-2.2L160.6,30.2z M160.1,23.8v1.1h2.3v-1.1
				H160.1z M160.1,26.9h2.3v-1.2h-2.3V26.9z M160.1,28.9h2.3v-1.3h-2.3V28.9z M162.2,30c0.5,0.6,1.1,1.3,1.3,1.9l-0.8,0.4
				c-0.2-0.5-0.8-1.3-1.3-1.9L162.2,30z M169.1,31.6c0,0.6-0.1,0.8-0.5,1c-0.4,0.2-0.9,0.2-1.9,0.2c0-0.3-0.2-0.7-0.3-0.9
				c0.7,0,1.3,0,1.5,0c0.2,0,0.3-0.1,0.3-0.3v-3h-2.7c-0.1,1.5-0.4,3.1-1.2,4.3c-0.2-0.2-0.5-0.5-0.7-0.5c1-1.7,1.1-4.1,1.1-5.9
				v-4.5h4.4V31.6z M168.2,27.7v-2.1h-2.6v0.8c0,0.4,0,0.8,0,1.2H168.2z M165.6,22.8v2h2.6v-2H165.6z"/>
			<path class="st5" d="M176.8,31.5c0.6,0.1,1.3,0.2,2.1,0.2c0.5,0,2.6,0,3.2,0c-0.2,0.2-0.3,0.7-0.4,0.9h-2.9
				c-2.6,0-4.5-0.5-5.6-2.6c-0.4,1.2-1,2.1-1.9,2.8c-0.2-0.2-0.5-0.5-0.8-0.6c1.4-1.1,2.1-2.9,2.4-5.1l0.9,0.1
				c-0.1,0.6-0.2,1.1-0.3,1.6c0.5,1.3,1.3,2.1,2.3,2.5V26h-3.1v-0.9h7.3V26h-3.2v2.1h3.7V29h-3.7V31.5z M172,25.4h-0.9v-2.7h4.9
				c-0.2-0.4-0.4-0.9-0.6-1.2l0.9-0.3c0.3,0.5,0.6,1.1,0.7,1.5h4.5v2.7h-0.9v-1.8H172V25.4z"/>
			<path class="st5" d="M188.2,29L188.2,29l-0.1,3.7h-0.8v-0.4H185v0.4h-0.8V29c-0.2,0.1-0.4,0.2-0.7,0.3c-0.1-0.2-0.3-0.6-0.5-0.8
				c0.9-0.3,1.7-0.8,2.4-1.4c-0.3-0.2-0.6-0.4-0.9-0.6l0.5-0.6c0.3,0.2,0.6,0.4,1,0.6c0.4-0.4,0.7-0.9,1-1.4h-1.8
				c-0.4,0.6-0.8,1.1-1.4,1.6c-0.1-0.2-0.3-0.5-0.5-0.6c1-0.7,1.6-1.7,1.9-2.5l0.7,0.1c-0.1,0.3-0.2,0.5-0.3,0.7h1.8l0.1,0l0.5,0.3
				c-0.3,0.8-0.8,1.6-1.3,2.2c0.7,0.5,1.5,0.9,1.9,1.3L188.2,29z M184.2,24.6h-0.7v-2.1h2.3c-0.1-0.3-0.2-0.6-0.4-0.9l0.7-0.3
				c0.2,0.4,0.4,0.8,0.5,1.2h2.1v2.1H188v-1.3h-3.8V24.6z M188.1,28.9c-0.5-0.3-1.1-0.8-1.9-1.3c-0.5,0.5-1.1,0.9-1.8,1.3H188.1z
				 M187.3,31.6v-1.9H185v1.9H187.3z M191.5,31.2c-0.7,0.6-1.8,1.2-2.6,1.6c-0.1-0.2-0.3-0.5-0.4-0.7c0.8-0.4,1.8-1,2.4-1.5
				L191.5,31.2z M191.2,23.9c0.1-0.4,0.2-0.8,0.2-1.2h-2.3v-0.8h5.5v0.8h-2.3c-0.1,0.4-0.2,0.9-0.4,1.2h2.3v6.5h-4.7v-6.5H191.2z
				 M193.3,24.7h-3v1.2h3V24.7z M193.3,26.6h-3v1.2h3V26.6z M193.3,28.5h-3v1.2h3V28.5z M192.7,30.6c0.7,0.4,1.6,1.1,2.1,1.6
				l-0.5,0.7c-0.4-0.5-1.3-1.2-2.1-1.6L192.7,30.6z"/>
			<path class="st5" d="M198.7,30.6l0.7-0.8c0.7,0.7,1.6,1.1,2.5,1.1c1.2,0,1.9-0.6,1.9-1.5c0-0.9-0.7-1.2-1.5-1.6l-1.3-0.6
				c-0.9-0.4-1.9-1-1.9-2.4c0-1.4,1.2-2.5,2.9-2.5c1.1,0,2.1,0.5,2.7,1.1l-0.6,0.7c-0.6-0.5-1.2-0.9-2.1-0.9c-1,0-1.7,0.5-1.7,1.4
				c0,0.9,0.8,1.2,1.5,1.5l1.3,0.6c1.1,0.5,1.9,1.1,1.9,2.5c0,1.5-1.2,2.6-3.1,2.6C200.6,32,199.5,31.4,198.7,30.6z"/>
			<path class="st5" d="M206,29.4c0-1.2,0.9-2,1.8-2.7c-0.4-0.7-0.6-1.5-0.6-2.2c0-1.2,0.9-2.2,2.1-2.2c1.1,0,1.8,0.8,1.8,1.8
				c0,1.2-1,2-2.1,2.7c0.6,1,1.5,1.9,2.3,2.6c0.6-0.8,1-1.7,1.3-2.7h1.1c-0.4,1.2-0.9,2.3-1.6,3.3c0.6,0.4,1.2,0.7,1.7,0.9l-0.3,1
				c-0.7-0.2-1.4-0.5-2.1-1.1c-0.7,0.6-1.6,1.1-2.7,1.1C207.2,32,206,30.9,206,29.4z M209,31.1c0.6,0,1.2-0.3,1.8-0.7
				c-0.9-0.8-1.8-1.8-2.4-2.8c-0.7,0.5-1.2,1.1-1.2,1.8C207.2,30.4,208,31.1,209,31.1z M208.7,26.2c0.8-0.6,1.6-1.1,1.6-2
				c0-0.5-0.3-1-0.9-1c-0.7,0-1.1,0.6-1.1,1.3C208.3,25.1,208.4,25.6,208.7,26.2z"/>
			<path class="st5" d="M215.4,22.6h2.6c2.1,0,3.5,0.7,3.5,2.7c0,2-1.4,2.9-3.4,2.9h-1.5v3.7h-1.2V22.6z M218,27.2
				c1.6,0,2.4-0.6,2.4-1.9c0-1.3-0.8-1.8-2.4-1.8h-1.3v3.7H218z"/>
			<path class="st5" d="M225.3,30.8l0.6-0.8c0.5,0.5,1.2,1,2.3,1c1.1,0,2-0.8,2-2c0-1.2-0.8-2-1.9-2c-0.6,0-1,0.2-1.5,0.6l-0.6-0.4
				l0.3-4.3h4.5v1h-3.5l-0.2,2.7c0.4-0.2,0.8-0.4,1.4-0.4c1.5,0,2.8,0.9,2.8,2.8s-1.5,3-3,3C226.8,32,225.9,31.4,225.3,30.8z"/>
			<path class="st5" d="M232.6,27.3c0-3,1.1-4.6,2.9-4.6s2.9,1.6,2.9,4.6c0,3-1.1,4.7-2.9,4.7S232.6,30.3,232.6,27.3z M237.2,27.3
				c0-2.6-0.7-3.7-1.8-3.7c-1.1,0-1.8,1.1-1.8,3.7s0.7,3.8,1.8,3.8C236.5,31.1,237.2,29.9,237.2,27.3z"/>
			<path class="st5" d="M239.6,27.3c0-3,1.1-4.6,2.9-4.6s2.9,1.6,2.9,4.6c0,3-1.1,4.7-2.9,4.7S239.6,30.3,239.6,27.3z M244.2,27.3
				c0-2.6-0.7-3.7-1.8-3.7c-1.1,0-1.8,1.1-1.8,3.7s0.7,3.8,1.8,3.8C243.5,31.1,244.2,29.9,244.2,27.3z"/>
			<path class="st5" d="M253.6,27.6l-1.6,0.5v3.6c0,0.5-0.1,0.8-0.5,0.9c-0.3,0.1-0.8,0.2-1.7,0.2c0-0.2-0.2-0.6-0.3-0.9
				c0.6,0,1.1,0,1.2,0c0.2,0,0.2-0.1,0.2-0.2v-3.3c-0.6,0.2-1.2,0.4-1.7,0.5l-0.3-0.9c0.5-0.1,1.2-0.3,2-0.5v-2.7h-1.8v-0.9h1.8
				v-2.5h0.9v2.5h1.4v0.9h-1.4v2.4c0.5-0.1,1-0.3,1.5-0.4L253.6,27.6z M255.9,26.2c-1.2,0-1.6-0.4-1.6-1.5v-3.4h0.9v1.5h5.1v0.8
				h-5.1v1.1c0,0.5,0.1,0.6,0.7,0.6h3.3c0.4,0,1.1,0,1.4-0.1c0,0.3,0.1,0.6,0.1,0.8c-0.2,0.1-0.9,0.1-1.4,0.1H255.9z M254.3,27.3
				h5.9v5.4h-0.9v-0.5h-4.1v0.6h-0.9V27.3z M255.2,28.1v1.2h4.1v-1.2H255.2z M259.3,31.4v-1.3h-4.1v1.3H259.3z"/>
			<path class="st5" d="M272.4,24.6c-0.2,1.9-0.6,3.5-1.3,4.8c0.6,1.1,1.3,2,2.3,2.6c-0.2,0.2-0.5,0.5-0.6,0.7
				c-0.9-0.6-1.6-1.4-2.2-2.5c-0.7,1.1-1.6,1.9-2.9,2.5c-0.1-0.2-0.3-0.4-0.4-0.6l-0.3,0.3c-0.4-0.2-1-0.5-1.6-0.8
				c-0.7,0.4-1.8,0.8-3.2,1.1c-0.1-0.2-0.3-0.5-0.4-0.6c1.2-0.2,2.1-0.5,2.7-0.8c-0.6-0.2-1.2-0.4-1.8-0.6c0.2-0.3,0.5-0.7,0.8-1.1
				H262v-0.7h2c0.2-0.3,0.3-0.5,0.4-0.8h-1.9v-2h2.4v-0.6h-2.1v-1.4h-0.9v-0.7h0.9v-1.3h2.1v-0.8h0.7v0.8h2.2v1.3h0.7v0.7h-0.7v1.4
				h-2.2v0.6h2.5v0.7c0.8-1.4,1.4-3.4,1.8-5.5l0.8,0.2c-0.2,0.8-0.3,1.6-0.5,2.3h3.3v0.8H272.4z M263.3,27.5h1.6v-0.8h-1.6V27.5z
				 M263.5,22.7v0.7h1.3v-0.7H263.5z M264.9,24.9v-0.8h-1.3v0.8H264.9z M264.4,29.6c-0.2,0.3-0.3,0.5-0.5,0.8
				c0.5,0.1,0.9,0.3,1.4,0.5c0.6-0.4,0.8-0.8,0.9-1.2H264.4z M267.7,31.9c1.2-0.6,2-1.4,2.6-2.5c-0.4-1-0.7-2.1-0.9-3.3
				c-0.2,0.5-0.4,1-0.7,1.4c-0.1-0.1-0.4-0.4-0.6-0.5v1.2h-2.8c-0.1,0.3-0.3,0.5-0.4,0.8h1.6v-0.1v-0.4h0.8v0.4v0.1h1.3v0.7h-1.3
				c-0.1,0.5-0.4,1.1-0.9,1.6C266.7,31.4,267.3,31.7,267.7,31.9L267.7,31.9z M265.6,22.7v0.7h1.4v-0.7H265.6z M267.1,24.9v-0.8h-1.4
				v0.8H267.1z M265.6,26.7v0.8h1.6v-0.8H265.6z M269.9,24.6l-0.1,0.2c0.2,1.3,0.5,2.6,0.9,3.7c0.4-1.1,0.7-2.3,0.9-3.8H269.9z"/>
			<path class="st5" d="M55.3,45.6c0-0.2-0.1-0.5-0.2-0.7c-2.6,0.5-3,0.6-3.3,0.7c0-0.2-0.2-0.6-0.3-0.8c0.3-0.1,0.5-0.4,0.9-0.8
				c0.2-0.2,0.6-0.8,1.1-1.5c-1.3,0.2-1.6,0.2-1.8,0.3c-0.1-0.2-0.2-0.6-0.3-0.8c0.2-0.1,0.4-0.3,0.6-0.7c0.3-0.4,1-1.8,1.5-3.2
				l0.8,0.3c-0.5,1.2-1.1,2.4-1.8,3.4l1.3-0.1c0.3-0.5,0.6-1.1,0.9-1.7l0.8,0.4c-0.8,1.5-1.7,3-2.7,4.2l1.9-0.3
				c-0.1-0.4-0.2-0.7-0.4-1.1l0.7-0.2c0.3,0.8,0.7,1.8,0.8,2.4L55.3,45.6z M53,46.2c-0.2,1.1-0.4,2.3-0.7,3
				c-0.1-0.1-0.5-0.2-0.7-0.3c0.3-0.8,0.6-1.9,0.7-2.9L53,46.2z M54.1,46.1c0.2,0.9,0.3,1.9,0.4,2.7l-0.7,0.2c0-0.7-0.2-1.8-0.3-2.7
				L54.1,46.1z M55.2,45.8c0.2,0.7,0.5,1.6,0.6,2.2l-0.6,0.2c-0.1-0.6-0.3-1.5-0.5-2.2L55.2,45.8z M55.7,48.6
				c0.4-0.7,0.7-1.8,0.9-2.6l0.7,0.2c-0.2,0.8-0.5,2-0.8,2.7L55.7,48.6z M62.5,45.1h-5.9v-5.8h1.7c0.2-0.4,0.4-0.9,0.5-1.3l0.9,0.2
				c-0.2,0.4-0.4,0.8-0.5,1.1h3.3V45.1z M61.6,40h-4.2v4.3h4.2V40z M60.5,48.6c0.4,0,0.5-0.2,0.5-1.3c0.2,0.1,0.5,0.2,0.7,0.3
				c-0.1,1.4-0.3,1.7-1.1,1.7h-1.8c-1,0-1.3-0.2-1.3-1V46h0.8v2.2c0,0.3,0.1,0.3,0.6,0.3H60.5z M60.8,43.9c-0.2-0.3-0.5-0.6-0.8-1
				c-0.5,0.5-1,0.9-1.6,1.3c-0.1-0.2-0.3-0.3-0.4-0.4c0.6-0.4,1.1-0.8,1.6-1.3c-0.2-0.2-0.4-0.4-0.5-0.6c-0.3,0.3-0.7,0.6-1.1,0.9
				c-0.1-0.1-0.3-0.3-0.4-0.4c0.4-0.3,0.8-0.6,1.1-0.9c-0.3-0.3-0.5-0.5-0.8-0.7l0.5-0.3c0.2,0.2,0.5,0.4,0.7,0.6
				c0.2-0.3,0.4-0.5,0.5-0.8l0.6,0.1c-0.2,0.4-0.4,0.7-0.7,1.1c0.2,0.2,0.4,0.4,0.6,0.6c0.3-0.4,0.5-0.7,0.7-1.1l0.7,0.1
				c-0.3,0.5-0.6,0.9-1,1.4c0.4,0.4,0.7,0.8,0.9,1.1L60.8,43.9z M60.1,47.6c-0.3-0.5-0.8-1.4-1.2-2l0.6-0.3c0.4,0.6,1,1.4,1.2,1.9
				L60.1,47.6z M62,45.9c0.4,0.8,0.9,1.8,1.1,2.4l-0.7,0.3c-0.2-0.7-0.7-1.7-1.1-2.5L62,45.9z"/>
			<path class="st5" d="M70.4,42.7v1.7h4.4v0.9h-4.4v3.1h5v0.9H64.5v-0.9h4.9v-3.1h-4.3v-0.9h4.3v-1.7h-2.7V42
				c-0.6,0.4-1.3,0.7-2,0.9c-0.1-0.3-0.4-0.6-0.6-0.8c2.3-0.8,4.7-2.2,5.9-4.1l0.9,0.4c-0.1,0.1-0.2,0.3-0.3,0.5
				c1.2,1.3,3.5,2.6,5.4,3.3c-0.2,0.2-0.5,0.6-0.7,0.8c-0.7-0.2-1.3-0.6-2-1v0.8H70.4z M67,45.5c0.5,0.7,1,1.7,1.2,2.3l-0.8,0.3
				c-0.2-0.6-0.7-1.6-1.2-2.3L67,45.5z M73,41.8c-1.1-0.7-2.2-1.5-3.1-2.4c-0.8,0.9-1.8,1.7-2.9,2.4H73z M71.6,47.9
				c0.4-0.6,1-1.6,1.3-2.3l0.9,0.3c-0.5,0.8-1,1.7-1.5,2.3L71.6,47.9z"/>
			<path class="st5" d="M81.8,45.8L81.8,45.8l-0.1,3.7h-0.8v-0.4h-2.3v0.4h-0.8v-3.7c-0.2,0.1-0.4,0.2-0.7,0.3
				c-0.1-0.2-0.3-0.6-0.5-0.8c0.9-0.3,1.7-0.8,2.4-1.4c-0.3-0.2-0.6-0.4-0.9-0.6l0.5-0.6c0.3,0.2,0.6,0.4,1,0.6
				c0.4-0.4,0.7-0.9,1-1.4h-1.8c-0.4,0.6-0.8,1.1-1.4,1.6c-0.1-0.2-0.3-0.5-0.5-0.6c1-0.7,1.6-1.7,1.9-2.5l0.7,0.1
				c-0.1,0.3-0.2,0.5-0.3,0.7h1.8l0.1,0l0.5,0.3c-0.3,0.8-0.8,1.6-1.3,2.2c0.7,0.5,1.5,0.9,1.9,1.3L81.8,45.8z M77.8,41.4h-0.7v-2.1
				h2.3c-0.1-0.3-0.2-0.6-0.4-0.9l0.7-0.3c0.2,0.4,0.4,0.8,0.5,1.2h2.1v2.1h-0.7v-1.3h-3.8V41.4z M81.7,45.7
				c-0.5-0.3-1.1-0.8-1.9-1.3c-0.5,0.5-1.1,0.9-1.8,1.3H81.7z M80.9,48.4v-1.9h-2.3v1.9H80.9z M85.1,48c-0.7,0.6-1.8,1.2-2.6,1.6
				c-0.1-0.2-0.3-0.5-0.4-0.7c0.8-0.4,1.8-1,2.4-1.5L85.1,48z M84.8,40.7c0.1-0.4,0.2-0.8,0.2-1.2h-2.3v-0.8h5.5v0.8h-2.3
				c-0.1,0.4-0.2,0.9-0.4,1.2h2.3v6.5h-4.7v-6.5H84.8z M86.9,41.5H84v1.2h2.9V41.5z M86.9,43.4H84v1.2h2.9V43.4z M86.9,45.3H84v1.2
				h2.9V45.3z M86.3,47.4c0.7,0.4,1.6,1.1,2.1,1.6l-0.5,0.7c-0.4-0.5-1.3-1.2-2.1-1.6L86.3,47.4z"/>
			<path class="st5" d="M92.8,47.7h2.1V41h-1.6v-0.7c0.8-0.1,1.4-0.4,1.9-0.7H96v8h1.9v1h-5.1V47.7z"/>
			<path class="st5" d="M99.3,50.3c0.8-0.4,1.3-1,1.3-1.7c-0.1,0-0.1,0-0.1,0c-0.4,0-0.8-0.3-0.8-0.8c0-0.5,0.4-0.8,0.9-0.8
				c0.6,0,1,0.5,1,1.4c0,1.2-0.7,2.2-1.8,2.6L99.3,50.3z"/>
			<path class="st5" d="M102.8,44.5c0-3.6,1.6-5,3.4-5c1,0,1.7,0.4,2.2,0.9l-0.6,0.7c-0.4-0.4-0.9-0.7-1.5-0.7c-1.3,0-2.3,1-2.4,3.8
				c0.6-0.7,1.4-1.1,2.1-1.1c1.6,0,2.6,0.9,2.6,2.8c0,1.7-1.2,2.9-2.6,2.9C104.2,48.8,102.8,47.3,102.8,44.5z M104,45.2
				c0.2,1.8,0.8,2.7,2,2.7c0.9,0,1.6-0.8,1.6-2c0-1.2-0.6-1.9-1.7-1.9C105.3,44,104.6,44.3,104,45.2z"/>
			<path class="st5" d="M110.3,47.7h2.1V41h-1.6v-0.7c0.8-0.1,1.4-0.4,1.9-0.7h0.9v8h1.9v1h-5.1V47.7z"/>
			<path class="st5" d="M116.8,44.5c0-3.6,1.6-5,3.4-5c1,0,1.7,0.4,2.2,0.9l-0.6,0.7c-0.4-0.4-0.9-0.7-1.5-0.7c-1.3,0-2.3,1-2.4,3.8
				c0.6-0.7,1.4-1.1,2.1-1.1c1.6,0,2.6,0.9,2.6,2.8c0,1.7-1.2,2.9-2.6,2.9C118.2,48.8,116.8,47.3,116.8,44.5z M117.9,45.2
				c0.2,1.8,0.8,2.7,2,2.7c0.9,0,1.6-0.8,1.6-2c0-1.2-0.6-1.9-1.7-1.9C119.3,44,118.5,44.3,117.9,45.2z"/>
			<path class="st5" d="M123.8,50.3c0.8-0.4,1.3-1,1.3-1.7c-0.1,0-0.1,0-0.1,0c-0.4,0-0.8-0.3-0.8-0.8c0-0.5,0.4-0.8,0.9-0.8
				c0.6,0,1,0.5,1,1.4c0,1.2-0.7,2.2-1.8,2.6L123.8,50.3z"/>
			<path class="st5" d="M127.8,47.7h2.1V41h-1.6v-0.7c0.8-0.1,1.4-0.4,1.9-0.7h0.9v8h1.9v1h-5.1V47.7z"/>
			<path class="st5" d="M138.7,40.6h-4.5v-1h5.8v0.7c-2.1,2.7-2.6,4.8-2.7,8.3h-1.2C136.3,45.2,137,43.1,138.7,40.6z"/>
			<path class="st5" d="M141.2,47.9c2.7-2.7,4.2-4.3,4.2-5.8c0-1-0.6-1.8-1.7-1.8c-0.8,0-1.4,0.5-1.9,1.1l-0.7-0.6
				c0.8-0.8,1.6-1.4,2.7-1.4c1.7,0,2.7,1,2.7,2.6c0,1.7-1.5,3.4-3.7,5.6c0.5,0,1-0.1,1.5-0.1h2.6v1h-5.8V47.9z"/>
			<path class="st5" d="M55.3,62.4c0-0.2-0.1-0.5-0.2-0.7c-2.6,0.5-3,0.6-3.3,0.7c0-0.2-0.2-0.6-0.3-0.8c0.3-0.1,0.5-0.4,0.9-0.8
				c0.2-0.2,0.6-0.8,1.1-1.5c-1.3,0.2-1.6,0.2-1.8,0.3c-0.1-0.2-0.2-0.6-0.3-0.8c0.2-0.1,0.4-0.3,0.6-0.7c0.3-0.4,1-1.8,1.5-3.2
				l0.8,0.3c-0.5,1.2-1.1,2.4-1.8,3.4l1.3-0.1c0.3-0.5,0.6-1.1,0.9-1.7l0.8,0.4c-0.8,1.5-1.7,3-2.7,4.2L55,61
				c-0.1-0.4-0.2-0.7-0.4-1.1l0.7-0.2c0.3,0.8,0.7,1.8,0.8,2.4L55.3,62.4z M53,63c-0.2,1.1-0.4,2.3-0.7,3c-0.1-0.1-0.5-0.2-0.7-0.3
				c0.3-0.8,0.6-1.9,0.7-2.9L53,63z M54.1,62.9c0.2,0.9,0.3,1.9,0.4,2.7l-0.7,0.2c0-0.7-0.2-1.8-0.3-2.7L54.1,62.9z M55.2,62.6
				c0.2,0.7,0.5,1.6,0.6,2.2L55.2,65c-0.1-0.6-0.3-1.5-0.5-2.2L55.2,62.6z M55.7,65.4c0.4-0.7,0.7-1.8,0.9-2.6l0.7,0.2
				c-0.2,0.8-0.5,2-0.8,2.7L55.7,65.4z M62.5,61.9h-5.9v-5.8h1.7c0.2-0.4,0.4-0.9,0.5-1.3l0.9,0.2c-0.2,0.4-0.4,0.8-0.5,1.1h3.3
				V61.9z M61.6,56.8h-4.2v4.3h4.2V56.8z M60.5,65.4c0.4,0,0.5-0.2,0.5-1.3c0.2,0.1,0.5,0.2,0.7,0.3c-0.1,1.4-0.3,1.7-1.1,1.7h-1.8
				c-1,0-1.3-0.2-1.3-1v-2.2h0.8V65c0,0.3,0.1,0.3,0.6,0.3H60.5z M60.8,60.7c-0.2-0.3-0.5-0.6-0.8-1c-0.5,0.5-1,0.9-1.6,1.3
				c-0.1-0.2-0.3-0.3-0.4-0.4c0.6-0.4,1.1-0.8,1.6-1.3c-0.2-0.2-0.4-0.4-0.5-0.6c-0.3,0.3-0.7,0.6-1.1,0.9c-0.1-0.1-0.3-0.3-0.4-0.4
				c0.4-0.3,0.8-0.6,1.1-0.9c-0.3-0.3-0.5-0.5-0.8-0.7l0.5-0.3c0.2,0.2,0.5,0.4,0.7,0.6c0.2-0.3,0.4-0.5,0.5-0.8l0.6,0.1
				c-0.2,0.4-0.4,0.7-0.7,1.1c0.2,0.2,0.4,0.4,0.6,0.6c0.3-0.4,0.5-0.7,0.7-1.1l0.7,0.1c-0.3,0.5-0.6,0.9-1,1.4
				c0.4,0.4,0.7,0.8,0.9,1.1L60.8,60.7z M60.1,64.4c-0.3-0.5-0.8-1.4-1.2-2l0.6-0.3c0.4,0.6,1,1.4,1.2,1.9L60.1,64.4z M62,62.7
				c0.4,0.8,0.9,1.8,1.1,2.4l-0.7,0.3c-0.2-0.7-0.7-1.7-1.1-2.5L62,62.7z"/>
			<path class="st5" d="M74.8,59.1c-0.5,1.6-1.3,3.1-2.2,4.3c0.5,1.2,1,2,1.7,2c0.4,0,0.5-0.7,0.6-2.3c0.2,0.2,0.6,0.4,0.8,0.5
				c-0.2,2.1-0.5,2.8-1.5,2.8c-1,0-1.7-0.8-2.3-2.1c-0.8,0.8-1.6,1.5-2.6,2.1c-0.1-0.2-0.5-0.6-0.7-0.7c1.1-0.6,2.1-1.4,2.9-2.3
				c-0.5-1.4-0.8-3.3-0.9-5.3h-4.3v1.6h3.2V60c-0.1,2.8-0.1,3.9-0.4,4.2c-0.2,0.2-0.4,0.3-0.8,0.4c-0.3,0-0.9,0-1.5,0
				c0-0.3-0.1-0.6-0.3-0.9c0.6,0.1,1.1,0.1,1.3,0.1c0.2,0,0.3,0,0.4-0.1c0.2-0.2,0.2-1,0.3-3.2h-2.3v0.1c0,1.8-0.2,4.3-1.3,5.9
				c-0.2-0.2-0.6-0.5-0.8-0.6c1-1.5,1.1-3.7,1.1-5.3V57h5.3c-0.1-0.7-0.1-1.4-0.1-2.1h1c0,0.7,0,1.4,0.1,2.1h4.1v0.9h-4
				c0.1,1.7,0.4,3.2,0.7,4.4c0.7-1,1.2-2.1,1.6-3.4L74.8,59.1z M72.6,54.9c0.8,0.4,1.8,1,2.3,1.4L74.3,57c-0.5-0.4-1.4-1.1-2.2-1.5
				L72.6,54.9z"/>
			<path class="st5" d="M84.1,58.4c0.9,2.1,2.5,4.1,4.2,5.1c-0.2,0.2-0.6,0.5-0.7,0.8c-1.9-1.2-3.5-3.4-4.4-5.9H83v4.7H86V64H83v2.3
				h-1V64h-2.9v-0.9h2.9v-4.7h-0.2c-1,2.5-2.6,4.7-4.4,5.9c-0.2-0.2-0.5-0.6-0.7-0.7c1.7-1,3.2-3.1,4.1-5.2h-3.8v-0.9h5v-2.6h1v2.6
				h5v0.9H84.1z"/>
			<path class="st5" d="M92.8,64.5h2.1v-6.6h-1.6v-0.7c0.8-0.1,1.4-0.4,1.9-0.7H96v8h1.9v1h-5.1V64.5z"/>
			<path class="st5" d="M99.3,67.1c0.8-0.4,1.3-1,1.3-1.7c-0.1,0-0.1,0-0.1,0c-0.4,0-0.8-0.3-0.8-0.8c0-0.5,0.4-0.8,0.9-0.8
				c0.6,0,1,0.5,1,1.4c0,1.2-0.7,2.2-1.8,2.6L99.3,67.1z"/>
			<path class="st5" d="M102.5,64.3l0.6-0.8c0.5,0.6,1.2,1.1,2.3,1.1c1.1,0,1.9-0.6,1.9-1.7c0-1.1-0.7-1.8-2.9-1.8v-0.9
				c1.9,0,2.6-0.7,2.6-1.7c0-0.9-0.6-1.4-1.6-1.4c-0.7,0-1.4,0.4-1.9,0.9l-0.6-0.7c0.7-0.7,1.5-1.1,2.6-1.1c1.6,0,2.7,0.8,2.7,2.3
				c0,1.1-0.7,1.8-1.6,2.1v0.1c1.1,0.3,2,1.1,2,2.3c0,1.6-1.3,2.6-3,2.6C104,65.6,103.1,65,102.5,64.3z"/>
			<path class="st5" d="M109.8,61.3c0-3.6,1.6-5,3.4-5c1,0,1.7,0.4,2.2,0.9l-0.6,0.7c-0.4-0.4-0.9-0.7-1.5-0.7c-1.3,0-2.3,1-2.4,3.8
				c0.6-0.7,1.4-1.1,2.1-1.1c1.6,0,2.6,0.9,2.6,2.8c0,1.7-1.2,2.9-2.6,2.9C111.2,65.6,109.8,64.1,109.8,61.3z M111,62
				c0.2,1.8,0.8,2.7,2,2.7c0.9,0,1.6-0.8,1.6-2c0-1.2-0.6-1.9-1.7-1.9C112.3,60.8,111.6,61.1,111,62z"/>
			<path class="st5" d="M116.5,64.4l0.6-0.8c0.5,0.5,1.2,1,2.3,1c1.1,0,2-0.8,2-2c0-1.2-0.8-2-1.9-2c-0.6,0-1,0.2-1.5,0.6l-0.6-0.4
				l0.3-4.3h4.5v1h-3.5l-0.2,2.7c0.4-0.2,0.8-0.4,1.4-0.4c1.5,0,2.8,0.9,2.8,2.8s-1.5,3-3,3C118,65.6,117.1,65,116.5,64.4z"/>
			<path class="st5" d="M123.8,67.1c0.8-0.4,1.3-1,1.3-1.7c-0.1,0-0.1,0-0.1,0c-0.4,0-0.8-0.3-0.8-0.8c0-0.5,0.4-0.8,0.9-0.8
				c0.6,0,1,0.5,1,1.4c0,1.2-0.7,2.2-1.8,2.6L123.8,67.1z"/>
			<path class="st5" d="M127.3,60.9c0-3,1.1-4.6,2.9-4.6c1.8,0,2.9,1.6,2.9,4.6c0,3-1.1,4.7-2.9,4.7
				C128.4,65.6,127.3,63.9,127.3,60.9z M131.9,60.9c0-2.6-0.7-3.7-1.8-3.7c-1.1,0-1.8,1.1-1.8,3.7s0.7,3.8,1.8,3.8
				C131.2,64.7,131.9,63.5,131.9,60.9z"/>
			<path class="st5" d="M134.3,60.9c0-3,1.1-4.6,2.9-4.6c1.8,0,2.9,1.6,2.9,4.6c0,3-1.1,4.7-2.9,4.7
				C135.4,65.6,134.3,63.9,134.3,60.9z M138.9,60.9c0-2.6-0.7-3.7-1.8-3.7c-1.1,0-1.8,1.1-1.8,3.7s0.7,3.8,1.8,3.8
				C138.2,64.7,138.9,63.5,138.9,60.9z"/>
			<path class="st5" d="M141.3,60.9c0-3,1.1-4.6,2.9-4.6c1.8,0,2.9,1.6,2.9,4.6c0,3-1.1,4.7-2.9,4.7
				C142.4,65.6,141.3,63.9,141.3,60.9z M145.9,60.9c0-2.6-0.7-3.7-1.8-3.7c-1.1,0-1.8,1.1-1.8,3.7s0.7,3.8,1.8,3.8
				C145.2,64.7,145.9,63.5,145.9,60.9z"/>
			<path class="st5" d="M54.9,79.8h2.2v0.8h-2.2v2.5H54v-2.5h-2.4v-0.8H54v-1.4H52v-0.8h1.2c-0.1-0.4-0.3-1.1-0.6-1.5l0.7-0.2
				c0.3,0.5,0.6,1.1,0.6,1.5l-0.6,0.2h1.6c0.3-0.5,0.7-1.3,0.9-1.8l0.8,0.2c-0.3,0.5-0.6,1.1-0.8,1.6h1.3v0.8h-2V79.8z M57.1,75.9
				h-5.4V75H54v-1.3h-2V73h2v-1.3h0.9V73h1.9v0.8h-1.9V75h2.2V75.9z M62.8,76.7c-0.3,1.5-0.8,2.9-1.5,4.1c0.6,0.7,1.3,1.2,2,1.6
				c-0.2,0.2-0.5,0.5-0.6,0.8c-0.7-0.4-1.3-0.9-1.9-1.6c-0.5,0.7-1.1,1.3-1.8,1.7c-0.1-0.2-0.3-0.3-0.4-0.5v0.4h-0.9V72.2h4.9v2.4
				c0,0.5-0.1,0.7-0.5,0.9s-1,0.2-2,0.2c0-0.3-0.2-0.6-0.3-0.8c0.8,0,1.4,0,1.6,0c0.2,0,0.3-0.1,0.3-0.2v-1.5h-3.2v3.4H62l0.2,0
				L62.8,76.7z M58.5,82.4c0.7-0.4,1.2-1,1.7-1.7c-0.7-1-1.2-2.2-1.6-3.5h-0.1V82.4z M59.4,77.3c0.3,1,0.7,1.9,1.3,2.7
				c0.5-0.8,0.9-1.8,1.1-2.7H59.4z"/>
			<path class="st5" d="M64.2,72.2h4.7V73h-1.4v1.6h1.2v8.3H68v-0.7h-2.9v0.9h-0.7v-8.5h1.2V73h-1.4V72.2z M68,81.5v-3.4h0h-0.5
				c-0.5,0-0.6-0.1-0.6-0.7v-2h-0.6v1c0,0.7-0.2,1.7-0.8,2.4c-0.1-0.1-0.2-0.2-0.3-0.3v2.9H68z M65.1,75.4v3c0.5-0.6,0.6-1.4,0.6-2
				v-1H65.1z M65.6,79.5h2v0.7h-2V79.5z M66.8,73h-0.6v1.6h0.6V73z M68,75.4h-0.6v2c0,0.2,0,0.2,0.2,0.2h0.4c0.1,0,0.1,0,0.1,0V75.4
				z M70.3,71.9h0.8v5c0,2.4-0.2,4.5-1.5,6.3c-0.2-0.2-0.5-0.4-0.7-0.5c1-1.3,1.3-2.8,1.4-4.5l-0.6,0.3c-0.1-0.8-0.4-1.9-0.7-2.9
				l0.6-0.2c0.3,0.9,0.6,2,0.7,2.7c0-0.4,0-0.8,0-1.2V71.9z M75.2,71.9v11.3h-0.8v-5L74,78.4c-0.1-0.7-0.5-1.8-0.9-2.6v7.2h-0.7
				v-4.8l-0.6,0.2c-0.1-0.8-0.4-1.9-0.7-2.8l0.5-0.2c0.3,0.8,0.6,1.9,0.7,2.6v-5.8h0.7v3.3l0.5-0.2c0.3,0.7,0.7,1.6,0.9,2.3v-5.7
				H75.2z"/>
			<path class="st5" d="M88.2,80.5H83v2.7h-1v-2.7h-5.1v-0.9h5.1v-1h1v1h5.1V80.5z M80.3,77.2c-1,0.5-2,1.1-2.8,1.5L77,78
				c0.8-0.3,2-0.9,3.1-1.4L80.3,77.2z M84.6,78.8c-0.1-0.2-0.2-0.4-0.3-0.7c-3.3,0.3-3.7,0.4-4,0.5c-0.1-0.2-0.2-0.6-0.3-0.8
				c0.3,0,0.6-0.3,1-0.6c0.2-0.2,0.8-0.7,1.4-1.3c-1.4,0.1-1.7,0.2-1.9,0.3c0-0.2-0.2-0.6-0.3-0.8c0.2,0,0.4-0.2,0.6-0.4
				c0.2-0.2,0.6-0.7,1-1.3h-4.6v-0.9h5.1c-0.2-0.3-0.4-0.7-0.6-1l0.9-0.2c0.3,0.4,0.6,0.9,0.7,1.2h4.7v0.9h-5.3
				c-0.4,0.6-0.8,1.1-1.2,1.5l1.6-0.1c0.3-0.3,0.6-0.7,0.8-1l0.8,0.4c-1,1.2-2.1,2.3-3.2,3.1l2.2-0.2c-0.2-0.3-0.4-0.6-0.6-0.8
				l0.7-0.3c0.6,0.6,1.2,1.5,1.4,2.1L84.6,78.8z M78,74.2c0.7,0.4,1.5,1,1.9,1.4l-0.7,0.6c-0.4-0.4-1.2-1.1-1.9-1.5L78,74.2z
				 M87.2,78.8c-0.5-0.5-1.6-1.2-2.5-1.8l0.7-0.5c0.8,0.5,1.9,1.2,2.5,1.7L87.2,78.8z M87.4,74.6c-0.6,0.6-1.3,1.2-1.9,1.6l-0.7-0.4
				c0.6-0.4,1.3-1.1,1.8-1.6L87.4,74.6z"/>
			<path class="st5" d="M92.2,81.5c2.7-2.7,4.2-4.3,4.2-5.8c0-1-0.6-1.8-1.7-1.8c-0.8,0-1.4,0.5-1.9,1.1l-0.7-0.6
				c0.8-0.8,1.6-1.4,2.7-1.4c1.7,0,2.7,1,2.7,2.6c0,1.7-1.5,3.4-3.7,5.6c0.5,0,1-0.1,1.5-0.1H98v1h-5.8V81.5z"/>
			<path class="st5" d="M99.8,81.3h2.1v-6.6h-1.6v-0.7c0.8-0.1,1.4-0.4,1.9-0.7h0.9v8h1.9v1h-5.1V81.3z"/>
			<path class="st5" d="M106.3,77.7c0-3,1.1-4.6,2.9-4.6c1.8,0,2.9,1.6,2.9,4.6c0,3-1.1,4.7-2.9,4.7
				C107.4,82.4,106.3,80.7,106.3,77.7z M110.9,77.7c0-2.6-0.7-3.7-1.8-3.7c-1.1,0-1.8,1.1-1.8,3.7s0.7,3.8,1.8,3.8
				C110.2,81.5,110.9,80.3,110.9,77.7z"/>
			<path class="st5" d="M113.6,81.5c0-0.5,0.4-0.9,0.8-0.9s0.8,0.4,0.8,0.9c0,0.5-0.4,0.9-0.8,0.9S113.6,82,113.6,81.5z"/>
			<path class="st5" d="M116.7,79.9c0-1.2,0.9-2,1.7-2.4v-0.1c-0.7-0.5-1.2-1.1-1.2-2.1c0-1.4,1.1-2.3,2.5-2.3c1.6,0,2.5,1,2.5,2.4
				c0,0.9-0.7,1.8-1.2,2.2v0.1c0.8,0.5,1.6,1.1,1.6,2.3c0,1.3-1.2,2.4-2.9,2.4C118,82.4,116.7,81.3,116.7,79.9z M121.5,80
				c0-1.2-1.1-1.6-2.4-2.1c-0.7,0.5-1.3,1.1-1.3,2c0,1,0.8,1.7,1.9,1.7C120.8,81.5,121.5,80.9,121.5,80z M121.3,75.5
				c0-0.9-0.6-1.6-1.6-1.6c-0.9,0-1.5,0.6-1.5,1.4c0,1.1,1,1.5,2.1,2C120.9,76.8,121.3,76.2,121.3,75.5z"/>
			<path class="st5" d="M127.4,79.7h-4V79l3.8-5.7h1.3v5.6h1.2v0.9h-1.2v2.5h-1.1V79.7z M127.4,78.8v-2.6c0-0.5,0-1.2,0.1-1.7h-0.1
				c-0.2,0.4-0.5,0.8-0.7,1.3l-2.1,3.1H127.4z"/>
			<path class="st5" d="M130.6,75.7c0-1.9,0.8-2.9,2.1-2.9c1.3,0,2.1,1,2.1,2.9c0,1.9-0.8,2.9-2.1,2.9
				C131.5,78.6,130.6,77.6,130.6,75.7z M134,75.7c0-1.5-0.5-2.2-1.2-2.2c-0.7,0-1.2,0.7-1.2,2.2s0.5,2.2,1.2,2.2
				C133.5,77.9,134,77.2,134,75.7z M138.1,72.8h0.8l-5.1,9.6H133L138.1,72.8z M137.1,79.5c0-1.9,0.8-2.9,2.1-2.9
				c1.3,0,2.1,1,2.1,2.9c0,1.9-0.8,2.9-2.1,2.9C137.9,82.4,137.1,81.3,137.1,79.5z M140.4,79.5c0-1.5-0.5-2.2-1.2-2.2
				c-0.7,0-1.2,0.7-1.2,2.2s0.5,2.2,1.2,2.2C139.9,81.7,140.4,80.9,140.4,79.5z"/>
		</g>
	</g>
</g>
<g>
	<line class="st0" x1="28.8" y1="394.2" x2="359.5" y2="394.2"/>
	<g>
		<line class="st0" x1="328.8" y1="393.8" x2="328.8" y2="391.4"/>
		<line class="st0" x1="257.6" y1="393.8" x2="257.6" y2="391.4"/>
		<line class="st0" x1="293.2" y1="393.8" x2="293.2" y2="391.4"/>
		<line class="st0" x1="222" y1="393.8" x2="222" y2="391.4"/>
		<line class="st0" x1="186.4" y1="393.8" x2="186.4" y2="391.4"/>
		<line class="st0" x1="150.8" y1="393.8" x2="150.8" y2="391.4"/>
		<line class="st0" x1="115.2" y1="393.8" x2="115.2" y2="391.4"/>
		<line class="st0" x1="79.6" y1="393.8" x2="79.6" y2="391.4"/>
		<line class="st0" x1="44" y1="393.8" x2="44" y2="391.4"/>
	</g>
	<line class="st1" x1="359.5" y1="272.1" x2="29.8" y2="272.1"/>
	<line class="st1" x1="359.5" y1="285.7" x2="29.8" y2="285.7"/>
	<line class="st1" x1="359.5" y1="299.2" x2="29.8" y2="299.2"/>
	<line class="st1" x1="359.5" y1="312.8" x2="29.8" y2="312.8"/>
	<line class="st1" x1="359.5" y1="326.4" x2="29.8" y2="326.4"/>
	<line class="st1" x1="359.5" y1="339.9" x2="29.8" y2="339.9"/>
	<line class="st1" x1="359.5" y1="353.5" x2="29.8" y2="353.5"/>
	<line class="st1" x1="359.5" y1="380.4" x2="29.8" y2="380.4"/>
	<polygon class="st2" points="31.3,368.2 31.3,366.9 32.8,366.9 32.3,368.2 	"/>
	<polygon class="st2" points="34.9,366.8 33.6,365.4 33.2,366.8 	"/>
	<polygon class="st2" points="38.7,366.8 39.7,365.4 40.4,366.8 	"/>
	<polygon class="st2" points="41.5,366.9 42.2,367.5 42.9,368.2 42.9,368.7 43.4,369.2 43.9,369.2 44.7,368.7 45.3,368 45.9,367.5 
		46.5,368.2 47.2,368.2 47.8,369.2 48.3,369.2 48.3,371.4 48.8,369.8 49.5,369.1 50.4,369.1 51.5,369.1 52.5,369.1 53,369.5 
		53.5,370.3 55.5,372.5 57.6,370 58.4,369.7 59.5,369.7 60.9,369.9 61.9,369.7 62.6,369.1 63.1,369.2 63.1,369.7 63.4,369.7 
		63.4,370.2 63.7,370.5 64.7,370.6 65.3,370.6 65.9,371.6 66.9,372.5 67.4,372.9 67.4,373.3 67.9,373.3 68.3,373.3 69,373.3 
		69,373.6 69.7,374.2 69.7,374.7 70.2,374.9 70.6,374.7 70.9,373.8 71.2,373.2 71.9,372.4 71.9,371.9 72.7,371.9 73.2,372.5 
		74.1,373.3 74.8,373.5 75.9,373.5 77,373.5 78,372.3 79.5,370.2 80.3,369.4 80.9,369.2 81.8,368.9 82.9,368.7 83.9,368.8 
		84.3,368.8 84.8,368.7 85.3,368.2 85.7,367.5 86.4,367.5 87.1,367.2 87.1,366.9 	"/>
	<polygon class="st2" points="87.8,366.8 87.8,366.6 89.2,366.1 89.5,365.8 90.2,365.4 90.6,365.1 91.5,365.5 92.2,366 92.4,366.3 
		93.3,366.3 93.9,366 94.5,366 94.9,365.7 95.6,365.6 96,366 96.3,366 96.3,366.4 98.2,366.4 98.5,366 100.2,366 100.6,365.6 
		101.2,365.1 101.9,364.4 102.4,363.8 102.8,363.5 103.2,363.5 103.5,364 103.7,364.2 104.5,364.3 104.5,363.9 105.6,364 
		105.8,364.2 106.4,364.4 106.6,364.2 106.6,364.7 107.2,364.7 107.7,364.8 108,364.7 108.4,364.4 108.7,363.9 109.4,364 110.3,364 
		110.7,363.5 111.2,363.1 111.8,363.1 111.8,363.6 112.8,363.6 113.7,363.5 114.6,363.4 115.3,363.4 115.8,363.1 116.2,362.9 
		116.7,362.7 117.8,362.7 118.1,362.3 118.6,362.3 118.8,362 119.8,362 120.7,361.7 121.3,361.7 121.3,361.5 122.3,361.5 
		122.8,361.5 122.8,361.8 123.2,362.2 126.2,362.2 126.6,361.8 127.6,360.8 128.4,360.4 129.2,360.1 129.8,359.7 130.7,359.3 
		131.5,358.9 132.2,358.5 132.9,358.1 133.3,358.4 133.8,358.7 134.5,358.9 135.3,358.9 135.6,358.6 136.4,358.1 136.9,357.1 
		137.3,356.6 137.9,356.2 138.4,356.2 138.8,356.2 139.3,356.9 139.7,357.3 139.9,358 140.4,358.3 141,358 141.6,357.6 142.6,356.8 
		143.5,356.2 144.1,356.2 144.7,357.1 145.1,357.6 145.5,357.8 146.1,357.9 146.6,358.1 146.8,358.7 146.8,359.2 147.4,359.9 
		147.8,360.3 148.3,360.9 148.7,361.3 149.4,361.5 150.2,361.5 150.6,361 151.2,360.4 151.9,359.9 152.6,359.8 153,360.4 153,360.9 
		153.3,361.5 153.6,362.3 154,362.9 154.7,362.9 155.4,362.7 156.2,362.8 156.4,363.4 156.9,364.6 157.2,365.2 157.5,365.8 
		157.5,366.8 	"/>
	<polygon class="st2" points="157.9,367 157.9,367.8 157.9,368.1 158.3,369 158.7,369.6 159.1,370.3 159.5,371 160.1,371.3 
		160.9,371.3 161.3,371.3 161.6,372 162.5,373.2 163.5,375.3 164.1,374.2 165.5,371.9 166.5,370.9 167.3,370.2 168.1,370.2 
		168.5,369.7 168.9,368.7 169.9,368.2 170.7,367.7 171,367.4 171,366.8 	"/>
	<polygon class="st2" points="173.8,366.8 175.4,365.2 176,365.2 176.7,365.9 176.9,366 177.6,366 179.8,363.3 180.3,363.3 
		182.5,366.6 182.5,366.8 	"/>
	<polygon class="st2" points="183.3,366.8 183.6,366.2 183.8,365.7 184.5,365.7 184.5,366.1 184.9,366.3 185.4,366.3 185.8,365.7 
		186.3,364.7 186.9,364.1 187.6,363.3 187.9,363.3 188.8,363.3 189.2,362.5 189.7,361.9 190.5,361.1 191.3,360.5 192.1,360 
		192.4,359.4 194.1,359.4 194.4,358.9 195.4,358.3 196.1,358.7 197.2,359.2 197.7,359.6 198.2,359.9 198.7,360.1 199,360.8 
		199.3,361.6 199.8,362.3 200.2,363 200.2,363.3 200.6,364 201.1,364 201.6,363.3 201.9,362.6 202.5,361.4 202.7,361 204.8,360.9 
		205.4,360.5 206.2,359.6 206.7,358.8 207.3,358 208,357.6 208.5,357.1 209,357.1 209.5,357.4 209.9,357.9 210.2,358.6 210.2,359.2 
		210.9,359.3 211.5,358.7 211.9,358.1 212.7,357.8 213.9,357.5 214.5,357.1 215,356.7 215.4,356.3 215.9,356 215.9,356.4 
		216.6,356.7 217.1,356.9 218.9,356.7 219.6,356.5 219.9,356 220.1,354.9 220.4,354.4 221.9,354.4 221.9,353.9 222.4,353.3 
		222.8,353 223.5,352.5 224,352 224.4,351.4 224.9,351.1 225.7,351.1 226.1,351.3 226.6,351.5 227,351.1 227.3,350.3 227.7,349.9 
		228.2,349.9 228.6,350.4 228.6,350.9 228.9,351.1 229.3,351.1 230.2,349.9 231.2,348.2 232,347.5 233.3,346.5 233.7,345.9 
		234.2,345.9 234.6,345.9 234.6,346.5 234.9,347 235.4,347.1 235.6,346.3 236,345.7 236.3,345.2 237.1,345.2 238.4,345.2 239,344.8 
		241.2,342.8 241.9,343.5 242.5,343.5 242.8,342.8 243.5,342.4 243.5,341.8 244.2,341.8 244.6,342.5 245.5,342.1 246.2,341.5 
		247,340.9 247.4,340.2 247.9,340.2 248.3,340.7 248.7,341.5 249.3,341.9 249.8,342 250.2,341.6 250.2,341.2 250.6,340.6 
		250.9,339.8 251.5,339.8 251.7,340.1 252,340.6 252.7,340.4 253.4,340.2 254.4,340 254.4,339.4 255.1,339.4 255.1,340.1 
		255.7,340.8 256,340.5 256.7,339.8 257.2,339.9 257.2,341 257.7,342.1 258.2,343 258.5,343.7 259,344.2 259.5,344.4 259.9,343.1 
		260.3,342.1 260.7,340.9 261.4,340.6 262.1,340.7 262.4,341.2 263.2,342.3 263.9,343.5 264.1,344.2 264.7,344.4 265.7,344.3 
		266.9,341.2 268.4,340.9 268.8,340.5 270.4,340.4 271.8,338.6 273.4,338.6 274.1,339 275,339.5 275.5,339.6 276.2,338.6 
		276.7,337.5 277.3,337.2 278.3,336.6 279.1,335.9 279.5,335.3 279.8,334.8 279.8,333.9 281.9,333.9 281.9,333.5 282.9,333.5 
		283.6,333.1 284.1,332.8 284.8,332.5 285.4,332.1 286,331.6 287.5,331.6 292.2,326.7 293.3,323.1 293.6,323.1 295.9,327.7 
		297.1,327.7 298.1,326.1 299.5,326 302.2,321.3 303.1,321.3 304.2,326.4 305.4,325.6 306.5,331.4 307.6,331.2 307.9,326.6 
		310.9,323.7 311.4,321.5 311.8,321.5 312.6,325.6 313.3,325.4 313.8,321.5 314.3,320.9 314.9,320.6 315.4,320.6 315.8,321.1 
		316.3,321.8 316.8,321.8 319.3,318.7 321.1,315.5 321.4,314.4 322,314.4 322.3,315.2 322.7,316.4 323.1,318.7 323.7,321.1 
		324.1,325 324.4,329.9 324.9,329.9 326,322.4 329.6,315.9 329.9,314.8 330.5,312.5 331,309.2 331.3,309.2 331.7,311.2 332.1,312.1 
		332.8,313.6 333.1,314.2 333.8,314.2 334.5,308.7 335.1,306.4 335.5,305.2 335.5,304.1 335.8,303.2 336.2,303.2 336.5,303.7 
		337.1,303.9 337.5,303.8 340.3,297.1 341.1,293.1 341.8,293.1 344.8,288.5 345.4,286 345.7,286 346.5,290.9 347,290.8 348.1,284.4 
		348.6,284.4 348.6,285 349.2,284.9 350.3,281.2 350.7,281.2 352.6,290.1 353.1,290 354,286.9 354.3,287.1 355.6,296.5 356.4,296.5 
		357.5,304.4 358.1,304.2 358.9,297.2 359.5,297.3 359.5,366.8 	"/>
	<line class="st0" x1="29.8" y1="266.9" x2="29.8" y2="394.6"/>
	<line class="st1" x1="360.9" y1="366.8" x2="31.2" y2="366.8"/>
	<text transform="matrix(1 0 0 1 23.8344 274.6582)"><tspan x="0" y="0" class="st3" style="font-family:'SourceHanSansTW-Regular-B5pc-H'; font-size:12px;"> </tspan><tspan x="-21" y="13.6" class="st3" style="font-family:'SourceHanSansTW-Regular-B5pc-H'; font-size:12px;">300</tspan><tspan x="-2.8" y="13.6" class="st3" style="font-family:'SourceHanSansTW-Regular-B5pc-H'; font-size:6px;">%</tspan><tspan x="0" y="27.2" class="st3" style="font-family:'SourceHanSansTW-Regular-B5pc-H'; font-size:12px;"> </tspan><tspan x="-21" y="40.7" class="st3" style="font-family:'SourceHanSansTW-Regular-B5pc-H'; font-size:12px;">200</tspan><tspan x="-2.8" y="40.7" class="st3" style="font-family:'SourceHanSansTW-Regular-B5pc-H'; font-size:6px;">%</tspan><tspan x="0" y="54.3" class="st3" style="font-family:'SourceHanSansTW-Regular-B5pc-H'; font-size:12px;"> </tspan><tspan x="-21" y="67.9" class="st3" style="font-family:'SourceHanSansTW-Regular-B5pc-H'; font-size:12px;">100</tspan><tspan x="-2.8" y="67.9" class="st3" style="font-family:'SourceHanSansTW-Regular-B5pc-H'; font-size:6px;">%</tspan><tspan x="0" y="81.5" class="st3" style="font-family:'SourceHanSansTW-Regular-B5pc-H'; font-size:12px;"> </tspan><tspan x="-8.9" y="95.1" class="st3" style="font-family:'SourceHanSansTW-Regular-B5pc-H'; font-size:12px;">0</tspan><tspan x="-2.8" y="95.1" class="st3" style="font-family:'SourceHanSansTW-Regular-B5pc-H'; font-size:6px;">%</tspan><tspan x="-24.6" y="122.2" class="st3" style="font-family:'SourceHanSansTW-Regular-B5pc-H'; font-size:12px;">-100</tspan><tspan x="-2.8" y="122.2" class="st3" style="font-family:'SourceHanSansTW-Regular-B5pc-H'; font-size:6px;">%</tspan></text>
	<g>
		
			<text transform="matrix(1 0 0 1 31.3271 410.9267)" class="st3" style="font-family:'SourceHanSansTW-Regular-B5pc-H'; font-size:12px;">2000</text>
		
			<text transform="matrix(1 0 0 1 102.1972 410.9267)" class="st3" style="font-family:'SourceHanSansTW-Regular-B5pc-H'; font-size:12px;">2005</text>
		
			<text transform="matrix(1 0 0 1 172.7929 410.9267)" class="st3" style="font-family:'SourceHanSansTW-Regular-B5pc-H'; font-size:12px;">2010</text>
		
			<text transform="matrix(1 0 0 1 245.6211 410.9267)" class="st3" style="font-family:'SourceHanSansTW-Regular-B5pc-H'; font-size:12px;">2015</text>
		
			<text transform="matrix(1 0 0 1 315.542 410.9267)" class="st3" style="font-family:'SourceHanSansTW-Regular-B5pc-H'; font-size:12px;">2020</text>
	</g>
</g>
<g>
	<path class="st4" d="M101.4,313.3h163.5c10.8,0,19.5-9.9,19.5-22v-44.5c0-12.2-8.8-22-19.5-22H57.9c-10.8,0-19.5,9.9-19.5,22v44.5
		c0,12.2,8.8,22,19.5,22h26.4V328L101.4,313.3L101.4,313.3L101.4,313.3z"/>
	<g>
		<text transform="matrix(1 0 0 1 51.0474 249.6451)"><tspan x="0" y="0" class="st5" style="font-family:'SourceHanSansTW-Regular-B5pc-H'; font-size:12.6006px;">每月投入5000元 定期定額 S&amp;P 500 指數</tspan><tspan x="0" y="16.8" class="st5" style="font-family:'SourceHanSansTW-Regular-B5pc-H'; font-size:12.6006px;">總金額 1,616,172          </tspan><tspan x="0" y="33.6" class="st5" style="font-family:'SourceHanSansTW-Regular-B5pc-H'; font-size:12.6006px;">總成本 1,365,000</tspan><tspan x="0" y="50.4" class="st5" style="font-family:'SourceHanSansTW-Regular-B5pc-H'; font-size:12.6006px;">報酬率 210.84%</tspan></text>
	</g>
</g>
</svg>
